<svg id="Capa_1" data-name="Capa 1" xmlns="http://www.w3.org/2000/svg" xmlns:xlink="http://www.w3.org/1999/xlink" viewBox="0 0 345 88"><defs><style>.cls-1{fill:none;}.cls-2{fill:#a1481c;}.cls-3{fill:#a16332;}.cls-4{fill:#ffd600;}.cls-5{fill:#299856;}.cls-6{fill:#098306;}.cls-7{fill:#fff;}.cls-8{clip-path:url(#clip-path);}.cls-9{fill:#242122;}.cls-10{fill:#262324;}.cls-11{fill:#252122;}.cls-12{fill:#312d2e;}.cls-13{fill:#3d3d3d;}.cls-14{fill:#959494;}.cls-15{fill:#989797;}.cls-16{fill:#413f40;}.cls-17{fill:#f7f7f7;}.cls-18{fill:#4f4e4f;}.cls-19{fill:#605f5f;}.cls-20{fill:#7a7879;}.cls-21{fill:#858485;}.cls-22{fill:#d3d2d2;}.cls-23{fill:#c6c4c5;}.cls-24{fill:#e8e8e8;}.cls-25{fill:#dbdada;}.cls-26{fill:#cecccd;}.cls-27{fill:#565555;}.cls-28{fill:#5a5959;}.cls-29{fill:#757575;}.cls-30{fill:#5c5c5c;}.cls-31{fill:#aaa9a9;}.cls-32{fill:#a7a7a7;}.cls-33{fill:#797979;}.cls-34{fill:#a19fa0;}.cls-35{fill:#7e7e7e;}.cls-36{fill:#666;}.cls-37{fill:#959595;}.cls-38{fill:#6c6b6c;}.cls-39{fill:#5e5d5d;}.cls-40{fill:#696969;}.cls-41{fill:#6c6c6c;}.cls-42{fill:#6c6a6b;}.cls-43{fill:#737373;}.cls-44{fill:#6f6f6f;}.cls-45{fill:#7d7d7d;}.cls-46{fill:#939393;}.cls-47{fill:#8a898a;}.cls-48{fill:#797778;}.cls-49{fill:#696768;}</style><clipPath id="clip-path"><rect class="cls-1" x="-520" width="500" height="331"/></clipPath></defs><path class="cls-2" d="M76,49.07V60.16a.44.44,0,0,1-.44.43H57.47a.44.44,0,0,1-.44-.43V49.67a1,1,0,0,1,1-1H75.56A.44.44,0,0,1,76,49.07ZM66,54.59a2.5,2.5,0,1,0-2.5,2.5A2.5,2.5,0,0,0,66,54.59Z"/><path class="cls-3" d="M72.51,62.59v9a3.22,3.22,0,0,1-3.2,3.24H16.19A3.22,3.22,0,0,1,13,71.63V40.94a5,5,0,0,1,4.95-5H69.31a3.22,3.22,0,0,1,3.2,3.23v7.47H58.07a3.05,3.05,0,0,0-3,3V60.16a2.43,2.43,0,0,0,2.44,2.43Z"/><circle class="cls-4" cx="63.5" cy="54.59" r="2.5"/><path class="cls-2" d="M62,31.51v2.42H59.58L61,29.39A2.63,2.63,0,0,1,62,31.51Z"/><path class="cls-5" d="M57.92,27.66l.06,0-.06.18-1.85,6.06H41.93l1.55-5.06.3-1,.2-.63,1.07-3.51a2.19,2.19,0,0,0,.36,0,3.82,3.82,0,0,0,1.17-.12A3.73,3.73,0,0,0,48,22.9a3.62,3.62,0,0,0,1-1.3l6.78,2.07A3.87,3.87,0,0,0,57.92,27.66Z"/><path class="cls-5" d="M42.91,19.5a4.47,4.47,0,0,0-.25.64L40.6,26.87l-.31,1-1.85,6.06H27.6V26.87l0-7a4.7,4.7,0,0,0,3.89-3.91h8.6A4.63,4.63,0,0,0,42.91,19.5Z"/><path class="cls-6" d="M43.79,20.49a2.63,2.63,0,0,1,.17-.42,2.92,2.92,0,0,1,1.24-1.29,1.21,1.21,0,0,1,.2-.09,2.83,2.83,0,0,1,2-.12l.6.18,10.91,3.34a2.9,2.9,0,0,1,1.92,3.62L60.45,27l-.29,1-1.83,6h-1l1.54-5.06.31-1,.28-.93-.56-.17a2.67,2.67,0,0,1-1.77-3.33l.17-.57-9-2.74-.17.56A3.42,3.42,0,0,1,48,21a2.62,2.62,0,0,1-1.44,1.36,2.69,2.69,0,0,1-1.17.18,2.45,2.45,0,0,1-.59-.11l-.57-.17-.28.92-1.12,3.66-.31,1-1.85,6.06h-1l1.54-5.06.31-1Z"/><path class="cls-6" d="M28.46,13l14.59,0a3.51,3.51,0,0,1,3.52,3.5v.77a4.1,4.1,0,0,0-2.72,1,3.24,3.24,0,0,1-2.41-3.11v-.72l-11.37,0v.72a3.22,3.22,0,0,1-3.22,3.24h-.72l0,8.43v7.06H25l0-5.06v-2l0-10.35A3.5,3.5,0,0,1,26,14,3.47,3.47,0,0,1,28.46,13Z"/><path class="cls-2" d="M13,33.05a4.15,4.15,0,0,1,4.13-4.18h6.4l0,5.06H18A6.86,6.86,0,0,0,13,36Z"/><path class="cls-7" d="M75.56,48.63H58.07a1,1,0,0,0-1,1V60.16a.44.44,0,0,0,.44.43H75.56a.44.44,0,0,0,.44-.43V49.07A.44.44,0,0,0,75.56,48.63ZM62,31.51A2.63,2.63,0,0,0,61,29.39l-1.38,4.54H62ZM44,27.24l-.2.63-.3,1-1.55,5.06H56.07l1.85-6.06.06-.18-.06,0a3.87,3.87,0,0,1-2.07-4L49.07,21.6a3.62,3.62,0,0,1-1,1.3,3.73,3.73,0,0,1-1.44.74,3.82,3.82,0,0,1-1.17.12,2.19,2.19,0,0,1-.36,0Zm1.22-8.46A2.92,2.92,0,0,0,44,20.07a2.63,2.63,0,0,0-.17.42l-2.26,7.38-.31,1-1.54,5.06h1l1.85-6.06.31-1L44,23.21l.28-.92.57.17a2.45,2.45,0,0,0,.59.11,2.69,2.69,0,0,0,1.17-.18A2.62,2.62,0,0,0,48,21a3.42,3.42,0,0,0,.13-.34l.17-.56,9,2.74-.17.57a2.67,2.67,0,0,0,1.77,3.33l.56.17-.28.93-.31,1-1.54,5.06h1l1.83-6,.29-1,.39-1.27a2.9,2.9,0,0,0-1.92-3.62L48,18.75l-.6-.18a2.83,2.83,0,0,0-2,.12A1.21,1.21,0,0,0,45.2,18.78Zm-18.35-.34a3.22,3.22,0,0,0,3.22-3.24v-.72l11.37,0v.72a3.24,3.24,0,0,0,2.41,3.11,4.1,4.1,0,0,1,2.72-1v-.77A3.51,3.51,0,0,0,43.05,13L28.46,13A3.47,3.47,0,0,0,26,14a3.5,3.5,0,0,0-1,2.48l0,10.35v2l0,5.06h1.17V26.87l0-8.43Zm.75,15.49H38.44l1.85-6.06.31-1,2.06-6.73a4.47,4.47,0,0,1,.25-.64,4.63,4.63,0,0,1-2.85-3.59h-8.6a4.7,4.7,0,0,1-3.89,3.91l0,7v7.06ZM13,71.63a3.22,3.22,0,0,0,3.19,3.24H69.31a3.22,3.22,0,0,0,3.2-3.24v-9h-15A2.43,2.43,0,0,1,55,60.16V49.67a3.05,3.05,0,0,1,3-3H72.51V39.16a3.22,3.22,0,0,0-3.2-3.23H18a5,5,0,0,0-4.95,5V71.63ZM11,33.05a6.16,6.16,0,0,1,6.13-6.18h6.4l0-10.34a5,5,0,0,1,4.94-5l14.6,0a5,5,0,0,1,5,4.94v1L59.27,21A4.1,4.1,0,0,1,62,26.06l-.41,1.35h0l.21.11a4.62,4.62,0,0,1,2.24,4v2.42h5.29a5.22,5.22,0,0,1,5.2,5.23v7.47h1A2.44,2.44,0,0,1,78,49.07V60.16a2.43,2.43,0,0,1-2.44,2.43h-1v9a5.22,5.22,0,0,1-5.2,5.24H16.19A5.22,5.22,0,0,1,11,71.63V33.05Zm6.13-4.18A4.15,4.15,0,0,0,13,33.05v3A6.86,6.86,0,0,1,18,33.93h5.6l0-5.06Z"/><rect class="cls-7" x="19" y="40.87" width="2" height="29" rx="1"/><path d="M106.16,55.39H117v5.22H99.57V27.79h6.59Z"/><path d="M121,40.48a11.62,11.62,0,0,1,4.28-4.7,11.36,11.36,0,0,1,6-1.64,10.68,10.68,0,0,1,5.11,1.17,10.52,10.52,0,0,1,3.5,3V34.56h6.63V60.61H140V56.8a9.75,9.75,0,0,1-3.5,3,10.73,10.73,0,0,1-5.15,1.2,11.06,11.06,0,0,1-6-1.7A11.89,11.89,0,0,1,121,54.57a15.32,15.32,0,0,1-1.57-7.08A15.11,15.11,0,0,1,121,40.48Zm18,3a6.64,6.64,0,0,0-2.54-2.63,6.69,6.69,0,0,0-9.33,2.58,8.12,8.12,0,0,0-1,4.07,8.39,8.39,0,0,0,1,4.12,6.9,6.9,0,0,0,2.54,2.7,6.42,6.42,0,0,0,3.36.94,6.71,6.71,0,0,0,3.43-.92A6.57,6.57,0,0,0,139,51.7a8.4,8.4,0,0,0,.94-4.11A8.44,8.44,0,0,0,139,43.47Z"/><path d="M153.63,35.48a15.66,15.66,0,0,1,6-6,17.05,17.05,0,0,1,8.49-2.14,16.63,16.63,0,0,1,9.64,2.83,14.76,14.76,0,0,1,5.79,7.8H176a7.87,7.87,0,0,0-3.18-3.52,9.24,9.24,0,0,0-4.72-1.18,9.77,9.77,0,0,0-5.11,1.34,9.13,9.13,0,0,0-3.48,3.79,12.47,12.47,0,0,0-1.24,5.73,12.54,12.54,0,0,0,1.24,5.72,9.18,9.18,0,0,0,3.48,3.81A9.77,9.77,0,0,0,168.05,55a9.15,9.15,0,0,0,4.72-1.2A8.05,8.05,0,0,0,176,50.27h7.57a14.74,14.74,0,0,1-5.76,7.83,18,18,0,0,1-18.16.65,15.62,15.62,0,0,1-6-5.94,17.07,17.07,0,0,1-2.19-8.66A17.13,17.13,0,0,1,153.63,35.48Z"/><path d="M189,40.48a11.62,11.62,0,0,1,4.28-4.7,11.37,11.37,0,0,1,6.05-1.64,10.66,10.66,0,0,1,5.1,1.17,10.52,10.52,0,0,1,3.5,3V34.56h6.63V60.61H208V56.8a9.75,9.75,0,0,1-3.5,3,10.73,10.73,0,0,1-5.15,1.2,11.06,11.06,0,0,1-6-1.7A11.89,11.89,0,0,1,189,54.57a15.32,15.32,0,0,1-1.57-7.08A15.11,15.11,0,0,1,189,40.48Zm18,3a6.64,6.64,0,0,0-2.54-2.63,6.69,6.69,0,0,0-9.33,2.58,8.12,8.12,0,0,0-1,4.07,8.39,8.39,0,0,0,1,4.12,6.9,6.9,0,0,0,2.54,2.7,6.42,6.42,0,0,0,3.36.94,6.71,6.71,0,0,0,3.43-.92A6.57,6.57,0,0,0,207,51.7a8.4,8.4,0,0,0,.94-4.11A8.44,8.44,0,0,0,207,43.47Z"/><path d="M230.94,35.36a9.3,9.3,0,0,1,4.68-1.18V41.1h-1.74a6.68,6.68,0,0,0-4.68,1.45q-1.57,1.47-1.57,5.08v13H221v-26h6.59v4A9.17,9.17,0,0,1,230.94,35.36Z"/><path d="M247.71,40v12.6a2.53,2.53,0,0,0,.63,1.91,3.15,3.15,0,0,0,2.14.58h3.06v5.55H249.4q-8.33,0-8.32-8.09V40H238V34.56h3.11V28.12h6.63v6.44h5.83V40Z"/><path d="M282.32,49.56H263.27a6.48,6.48,0,0,0,2,4.42,6.06,6.06,0,0,0,4.28,1.6,5.39,5.39,0,0,0,5.22-3.15h7.1a11.84,11.84,0,0,1-4.33,6.18A12.6,12.6,0,0,1,269.67,61a13.62,13.62,0,0,1-6.75-1.67,11.85,11.85,0,0,1-4.66-4.73,14.52,14.52,0,0,1-1.67-7,14.75,14.75,0,0,1,1.65-7.11,11.53,11.53,0,0,1,4.61-4.7,14.81,14.81,0,0,1,13.47,0,11.18,11.18,0,0,1,4.56,4.53A13.65,13.65,0,0,1,282.51,47,16.14,16.14,0,0,1,282.32,49.56Zm-6.63-4.42a5.24,5.24,0,0,0-1.84-4.07,6.49,6.49,0,0,0-4.37-1.53A6,6,0,0,0,265.37,41a6.46,6.46,0,0,0-2.05,4.11Z"/><path d="M297.2,35.36a9.3,9.3,0,0,1,4.68-1.18V41.1h-1.74a6.68,6.68,0,0,0-4.68,1.45q-1.57,1.47-1.57,5.08v13H287.3v-26h6.59v4A9.17,9.17,0,0,1,297.2,35.36Z"/><path d="M306.18,40.48a11.62,11.62,0,0,1,4.28-4.7,11.4,11.4,0,0,1,6.05-1.64,10.66,10.66,0,0,1,5.1,1.17,10.42,10.42,0,0,1,3.5,3V34.56h6.63V60.61h-6.63V56.8a9.67,9.67,0,0,1-3.5,3,10.73,10.73,0,0,1-5.15,1.2,11.08,11.08,0,0,1-6-1.7,11.89,11.89,0,0,1-4.28-4.77,15.32,15.32,0,0,1-1.57-7.08A15.11,15.11,0,0,1,306.18,40.48Zm18,3a6.64,6.64,0,0,0-2.54-2.63,6.69,6.69,0,0,0-9.33,2.58,8.12,8.12,0,0,0-1,4.07,8.39,8.39,0,0,0,1,4.12,7,7,0,0,0,2.54,2.7,6.42,6.42,0,0,0,3.36.94,6.69,6.69,0,0,0,3.43-.92,6.57,6.57,0,0,0,2.54-2.63,8.4,8.4,0,0,0,.94-4.11A8.44,8.44,0,0,0,324.17,43.47Z"/><g class="cls-8"><path class="cls-9" d="M46.25,200.76v2.81c-.7.57-.7,1.13,0,1.69v1.12c-.53.35-1,.1-1.61-.15a7.62,7.62,0,0,1,1.61,1.28v1.12c-1.11.49-1.89-.36-2.8-.69-.75-.28-1.5-.84-2.18.12-.65.59-1.61.36-2.66,1.19a10.69,10.69,0,0,0,6.14,0,1.72,1.72,0,0,1,1.5.49V212a122.2,122.2,0,0,0,0,18.55v15.18c-1.48.92-2.88,0-4.29-.24-1.75-.28-2.39,0-2.31,2.07a31.82,31.82,0,0,1-6.48,20.87c-2,1.19-2-.37-2.13-1.62a4.86,4.86,0,0,1,.66-2.16,12.32,12.32,0,0,0,.68-1.64,25.7,25.7,0,0,0,2.5-11.68c0-8.16-.52-16.27-1.22-24.38,0-.38-.07-.75-.07-1.13,0-.8-.37-1.91.74-2.12s1.5.95,1.72,1.82a26.19,26.19,0,0,1,.91,6.94c-.07,2.81.54,5.53.76,8.33,1.09-.14,1-.84,1-1.3,0-5,.35-9.93-.51-14.86-.56-3.23-1-3.54-4.15-3.47-12,.24-24,1.49-36.07,1.13-3.65-.11-5,2.83-7.36,4.39.39,1.07,1.29.77,1.92,1,2.12.72,3.53,4.05,2.53,6a1.87,1.87,0,0,1-3.37.23c-.55-.78-.37-1.84-1-2.59a.41.41,0,0,0-.61.35,107.34,107.34,0,0,0-.1,13.18c.05,1.64,1.37,2,2.67,2.43,3.38,1,6.4,2.63,8.47,5.63,4,5.79,2.28,12-4.23,15.18a26.13,26.13,0,0,1-4.23,1.47c-.9.26-2.13.44-2.34,1.34-.55,2.36-2.52,1.44-3.86,1.95a.85.85,0,0,1-1.1-.61c-.68-2.31-2.55-2.05-4.32-2.16-3.34-.21-5-2.26-4.41-5.41.17-1,.51-1.82,1.63-2a2,2,0,0,1,2.44,1.37,9,9,0,0,0,.72,1.82,2,2,0,0,0,2.22.82,1.47,1.47,0,0,0,1.21-1.65c.07-4.68.2-9.37-.07-14.05A3.09,3.09,0,0,0-17,248.34c-.17-.08-.33-.17-.49-.26-8.84-5-9.25-12.65-1-18.43a1.41,1.41,0,0,0,.66-.77c-7.66,1-15.17,2.3-22.66,3.66-2.67.48-5.3,1.1-8,1.55s-5.56.67-8.26-.46c-.47-.2-1.12-.66-1.41.15a5,5,0,0,0,0,2.77c.16.78.75.61,1.33.53,2-.28,4.06-.37,6.09-.8,4.51-1,5.51.06,4.6,4.51-2,9.82-4.1,19.62-6.17,29.42-.72,3.41-.23,4.05,3.3,3.94,5.31-.18,10.61-.63,15.93-.65a8.85,8.85,0,0,0,4.3-1.15,3,3,0,0,1,4.54,1.2c1.18,2,2.9,2.27,5,2.36,5.89.25,11.73-.64,17.61-.6a8.31,8.31,0,0,1,3.32.38,1.12,1.12,0,0,1,.63,1,2.8,2.8,0,0,0,.1,3.17c.05.76-.13,1.38-1,1.58-2.75-.81-4.69-3.42-7.86-3.3,2.5.05,4.42,1.38,6.28,2.73s2.42,3.79,1.44,5.18c-.39.55-.86,1.05-1.61.87s-.63-.85-.57-1.38c.22-2.16-1.09-3.36-2.78-4.1-4-1.75-8.22-2.95-12.69-2.45-1.48.17-2.95-.16-4.8.2,2.06-.05,2.54.58,1.66,2.18-1.78,3.21-1.34,4.14,2.21,5,5.11,1.21,10.33,1.37,15.55,1.52,2.53,1.72.46,2.12-.77,2.77-1.39-.15-1.46,1.75-2.74,1.78-.4-.09-.57-1.16-1.18-.28-.14.2-.22.73-.1.73.41,0,.62-.59,1.11-.55.77.48.94,1.73,2.13,1.67,1.95.25,3.12-.89,4.2-2.26.38-.48.78-1.22,1.55-.9s.74,1.06.74,1.7c0,1.64.43,3.55-2,3.9a4.55,4.55,0,0,0-2.28.56c3,2,6,3.7,9.13,6-.54-2.19-2.65-3.15-2.41-5.16a4.4,4.4,0,0,1,4.15-2.44c2.45,1.53,2.61,3.93,2.2,6.4-.29,1.71-.72,3.32.91,4.61a1.2,1.2,0,0,1,.37.73c.08.43-.26,1-.43.91-2-.84-.45,3.15-2.64,2-1.61-.88-2.53,0-3.58,1.13-2.65,2.79-5.48,2.41-7.56-.87-.5-.79-.72-1.52,0-2.29a1.72,1.72,0,0,1,2.28-.37c1.3.73,3,2.58,4,.54.93-1.81-1.68-2.24-2.75-3.2s-2.5-1.64-3.65-2.6c-2.18-1.81-4.17-3-7.24-1.28-2.7,1.46-5.44.12-7.68-1.88a23.23,23.23,0,0,0-2-2c-1.84-1.29-3.08-.92-3.74,1.2A49.39,49.39,0,0,1-25.24,307a4.66,4.66,0,0,0-.72,2.66,3.29,3.29,0,0,1-1.79,3.28c-2.82,1.42-3.76,4.31-5.57,6.5-1.15,1.38-.54,2.05,1,2.5a53.71,53.71,0,0,1,14.88,7c1.19.79,3.25,1.9,2.32,3.23s-2.68-.24-3.81-1.09a47,47,0,0,0-14.59-7,4.61,4.61,0,0,0-1.64-.33c-.49,0-1,.17-1,.74s.3.63.65.78a4.69,4.69,0,0,0,.79.29c7.09,2.07,13.28,5.88,19.32,10,2.36,1.61,2.51,1.58,3.54-1.06,3-7.65,8.72-12.94,15.06-17.7,3.14-2.35,6.44-4.48,9.6-6.82a6.7,6.7,0,0,0,3-5.43c.21-8.83,3-16.89,7-24.61.64-1.22,1.5-2.51-.07-3.73a1.61,1.61,0,0,1,0-2.05,6.74,6.74,0,0,1,4.55-.71,2.23,2.23,0,0,1,1,2.47c-1.27,4.05-4.1,7.32-5.63,11.26a47.09,47.09,0,0,0-3.19,15.31c-.37,9.53.38,18.91,3.37,28,.27.8.46,1.62.77,2.4,1,2.56,1.33,2.67,3.53,1.1A62.93,62.93,0,0,1,42.53,326c1.18-.42,2.39-1.25,3.72-.38v1.69c-1.09,2-3.78,1.36-5.35,3.37,2-.44,3.37-2.69,5.35-1.13v2.25c-1.64,1.5-.37,3,0,4.5v3.38c-1.09.72-1.5-.22-1.9-.88a21.06,21.06,0,0,1-2.2-4.22c-1.15,6,0,7.78,4.1,6.78v1.13c-.14.56-1.38,1.12,0,1.68v1.13c-.46.56-.61,1.12,0,1.68v3.94c-1.64.29-2.08-1.22-3.09-2.08-.41,3.85-.68,7.66-1.42,11.49,1.72,0,2.79-2.05,4.51-1V361a5.86,5.86,0,0,1-2,2.23c-8,5-8.81,16.41-2,23.37,1.36,1.39,3.13,2.38,4,4.2v2.81c-.44,2.13-2,2.76-4,1.53a3.32,3.32,0,0,0-2.92-.26,2.14,2.14,0,0,1-2.72-.45c-.81,1.26.09,2.72-1.21,3.71-1.33-.52-.92-2-1.5-3-.26.8.37,2.1-.83,2.32-1,.18-1.3-.89-1.55-1.69-.51-1.64-1.11.93-1.77-.07-.38-.59-.86-1.35-1.61-1.49a21.24,21.24,0,0,0-5.84-.43c-1,.1-.85.76-.42,1.4A4.31,4.31,0,0,0,25,396.92,42.21,42.21,0,0,1,38.81,402c2.9,1.73,5.7,3.67,6,7.55.08.89.82,1.44,1.42,2v1.13c-1.33.75-1.54,1.5,0,2.25v3.93c-1.11.83-2.32.07-3.48.19s-2.21-.11-3.05,1c2,1.44,4.61.22,6.53,1.65v1.13c-1.91,1.16-4,.26-5.57.48,1.57.55,3.72-.58,5.57.64v1.13c-1.9,1.28-3.94.64-5.94.38-1.42-.18-2.82-.4-3.77,1a3.93,3.93,0,0,0-.08,4.71c1.08,1.63,2.11,3.3,3.31,4.85.33.43.65,1.22,1.16,1.1,3.36-.74,1.3,1.95,2,2.63.09-.24.06-1.31.73-1.1,1.31.4.27,1.72.62,2.48,0-.38,0-.84,0-1.3s.24-.94.8-.92c.76,0,.81.55.76,1.18-.21,2.31-.58,4.63.37,6.87V451c-1.71.25-2.17-1.22-2.84-2.23-4-6.18-7.82-12.54-11.52-18.93-2.44-4.21-5.1-8.28-7.64-12.42-1.84-3-4.85-3.6-7.91-1.85C6,421.47-4.35,427.48-15,433c-2.76,1.43-2.82,1.7-1.67,4.55a4.77,4.77,0,0,0,.22.52c.66,1.07.47,3.09,1.86,3.14s1.2-1.8,1.65-2.9a2.9,2.9,0,0,1,3.1-1.45,20,20,0,0,0,3.86.07,4.18,4.18,0,0,1,4.46,3.78c.12.86.12,1.75-.89,2.11-.83.3-1.35-.25-1.9-.82s-.85-2.68-2.22-1.7c-1,.74.19,2.06.73,3,1.45,2.41,2.67,4.94,3.9,7.46a3,3,0,0,0,3.55,1.95c4-.63,7.37.15,9.55,4.06s1.95,7.87-.56,11.62c-.94,1.4-1.93,2.71-1.68,4.6.12.9-2.34,2.37-3.28,2a3.17,3.17,0,0,0-2.92.13c-2,1-3.78,2.11-6.31,1.18-1.48-.54-2.37,1.22-2.64,2.64a31.81,31.81,0,0,0-.15,5.25C-3.89,483-2,481.62,0,480.53c.78-.41,1.82-1.22,2.45-.14.48.8-.49,1.5-1.17,2a53.6,53.6,0,0,1-6.77,4.48c15.77-8.08,30-18.68,44.76-28.29,2.14-1.39,4.14-3.21,7-3.1v1.68A9.66,9.66,0,0,1,41,461.52a17.77,17.77,0,0,0-4.14,2.32c-8,5.36-15.7,11.08-23.81,16.23-2.31,1.47-4,3.77-6.9,4.51-1.24.31-1.92,1.7-2.51,2.89a40.21,40.21,0,0,1-6.52,9.76c-3.29,3.52-5.37,7.26-5.37,12.39,0,6.61-1.1,13.2-1.35,19.82-.12,3.11.17,2.82,3.14,2.89,4.82.13,6.92-3.27,9.43-6.31a10.73,10.73,0,0,1,1.77-1.15,2,2,0,0,1,.84-.13c.63.11,1.09.38,1.09,1.11-.92,2.51-3,4.19-4.46,6.35-5,7.53-8.94,15.67-13,23.72a13.67,13.67,0,0,0-1.1,6.28c0,1.36.35,2.83-.7,4h-2.24c-.91-3.51-.33-7.05-.1-10.55.58-8.87,1.24-17.73,2-26.59.75-8.48,1.37-17,2.07-25.46.29-3.45.41-6.92.54-10.37.22-5.89.91-11.76.76-17.67,0-1.69-.39-2.82-2.44-3C-21.58,472-31,470.15-40.58,469a68.26,68.26,0,0,0-17.31.43c-2.38.33-3.29,1.68-3.57,3.91-.53,4.37-.94,8.77-1.11,13.15C-63,498.66-64,510.79-65,522.91c-1.14,12.9-1,25.81-1,38.73,0,1.56.29,3.21-.85,4.58h-2.24c-.91-1.63-1.3-3.38-2.9-4.83s1.33-.85,1.62-1.76c-2.3-2.15-3.33-2-4.53.84-.92,2.13-1.57,4.42-3.72,5.75h-1.12c-1-1.24-.12-2.32.33-3.4a82.13,82.13,0,0,0,4.2-12.2c.67-2.75.39-3.25-2.42-3.91a37.61,37.61,0,0,0-11.38-1.09,9,9,0,0,0-7.13,3.86c-1.89,2.72-1.42,4.55,1.52,5.72,4.14,1.66,8.34,3.24,11.22,7.17,1.32-3,2.48-5.84,3.66-8.68.35-.84.74-2,1.9-1.64s.85,1.57.56,2.43a51.12,51.12,0,0,1-5.26,11.74h-2.24c-2.54-5.05-7.46-6.85-12.18-8.8-9.07-3.74-18.61-6-28-8.94-3.83-1.18-7.7-2.23-11.49-3.55a4.4,4.4,0,0,0-5,1.21,80,80,0,0,0-13.27,17.61,9.37,9.37,0,0,1-1.81,2.47h-2.24c.8-4.16,3.6-7.26,5.65-10.75,3.5-6,8.72-10.44,13.45-15.33.61-.63,1.83-1.12,1.41-2.17-.31-.78-1.46-.67-2.26-.89a23.72,23.72,0,0,0-5.77-.76c.83.76,2,.47,2.9,1,.57.34,1.21.67,1,1.47s-.94.87-1.57.72c-2.61-.62-4,.31-3.82,3.11.32-.07.49-.49.8-.71.77-.57,1.7-1.31,2.48-.5s-.22,1.69-.79,2.32c-3.9,4.28-7.88,8.47-11.11,13.31a48.94,48.94,0,0,0-3.61,6.33,5.47,5.47,0,0,1-2.16,2.84h-1.13c.66-4.59,3.46-8.08,5.65-11.64a18.05,18.05,0,0,1-6,1.92c.76.6,1.59,1.16,0,1.82-4.11,1.7-4.59,2.32-4.45,6.47.06,1.71-1.43.75-1.89,1.43H-174c.64-2.57,2.19-4.68,3.49-6.91,1-1.65.91-2.65-1.16-3.31a22.79,22.79,0,0,1-10.52-7c-.78-.9-1.74-.49-2.6-.26A76,76,0,0,0-197,552.69a8.47,8.47,0,0,1-3.74,1.08,1.17,1.17,0,0,1-1.16-.61c-.2-.53.23-.87.56-1.18a7.25,7.25,0,0,1,2.44-1.36,108.46,108.46,0,0,1,13-4.25c.89-.22,2.38-.14,2-1.69-.32-1.35-1.53-1.09-2.57-.88a78,78,0,0,0-21.64,8.27c-1.81,1-1.83,2.32-1.31,4,.47,1.55,1.05,2.39,3,2s3.87,1.63,3.94,3.48c.06,1.56-.95,1.85-2.22,1.75-.87-.07-1.28-1.13-2.24-1.06-.78,1.32,1,2.71-.1,4h-3.37c-1.58-2.3-1.89-5.06-2.59-7.65-1.8-6.59-3.51-13.2-4.94-19.87-1.25-5.8-1.22-5.8-7.24-5.37.78.39,1.85.26,1.82,1.2,0,.72-.84,1.05-1.44,1.1-4.12.34-5.7,3.44-7.28,6.58a66.41,66.41,0,0,0-4.46,10.27,21.24,21.24,0,0,0-.61,11.61c.18.72.43,1.46-.15,2.13h-4.49c-5.41-4.76-9.74-10.52-14.59-15.8-2-2.19-1.85-2.21-3.25.23-3.16,5.46-7.13,9.86-14,10.26-2.59.15-4.34,2-6.34,3.33-1.15.77-2.78,2.52-3.78,1.19-1.12-1.5,1.18-2.3,2.16-3.29.5-.5,1.35-.67,1.49-1.72-2.37-.1-3.48,1.45-4.4,3.18a7.26,7.26,0,0,1-1.55,2.62h-1.68c-.91-1.07-.21-2.12.05-3.16.45-1.77,1.38-3.42,1.43-6-2.09,3.26-1.85,6.86-4.28,9.17h-1.12c-.89-1.68.36-3,.72-4.51a10,10,0,0,1,.81-2.09c1.22-2.41,1.14-4.39-1-6.45-2.72-2.62-4.32-6-5.56-9.62a7.46,7.46,0,0,1,.4-6.21,32,32,0,0,1,4.49-7.07c1.31-1.48,1.24-2.31-.85-2.82-1.47-.37-3.23-.27-4.19-1.87.23-.88,1-1,1.68-1.07a26.29,26.29,0,0,1,5.47,1.11,6.12,6.12,0,0,0,3.57-.24c.37,0-.13-.58,0-.23,0,.12,0,.19-.22.16a30,30,0,0,1-10.33-3.22c-.35-1.17-.24-2.78-2.23-2.44-.95-1.48-2.6-1.58-4.05-2.09,1.39.69,3.14.69,4.1,2.19a1.51,1.51,0,0,1-1.41,1.4c-5.77-.67-11.09-3-16.69-4.37-3.79-.9-7.44-2.35-11.25-3.19a2.2,2.2,0,0,1-1.81-1.14c.11-1.74,1-2.66,2.77-2.58,4.34,1.4,8.6,3,13,4.21,3.8,1,3.8,1.09,3.81-3,0-6.08,0-12.16,0-18.23,0-1.37-.51-3.61,1.4-3.65,1.68,0,1.7,2.22,1.77,3.64a58.93,58.93,0,0,1-.18,11.19,66.83,66.83,0,0,0-.21,9.8c0,.59-.12,1.36.73,1.59,1.24-2.2,3.1-4.08,2.88-6.94-.07-1,.57-1.87,1.82-.93.89,1.31.48,2.84.67,4.27a6,6,0,0,0,1.1,2.76c.5.45.67.15.74-.35,0-.26,0-.51,0-.76.11-.77.08-1.62,1-1.94.93.22,1.13,1,1.31,1.76.23,1,.42-.27.68,0,1,.15,1.11,1,1.48,1.69.5,1.41,1.69,1.91,3,2.3a9.21,9.21,0,0,1,4.74,2.82c2.58,3.26,5.85,3.93,9.71,2.84a9.41,9.41,0,0,1,4.4-.54c.53.11,1.19.2,1.2.92,0,.54-.54.72-.94.93a6.48,6.48,0,0,1-2.5.52c3.26,1.62,6.87,2.91,9.42,5.95a17.37,17.37,0,0,0,2.8,3.19,6.89,6.89,0,0,1,1.67,2.55c.18.37,0,1.39.87.5.4-.42.74-.82,1.39-.7a5.55,5.55,0,0,1,2.25,2.43c3,4.64,6.47,8.87,9.64,13.34,1.46,2,2.58,4.2,3.92,6.06a9.94,9.94,0,0,1,.24-3.71,1.28,1.28,0,0,1,1.18-1c.67,0,.84.67.93,1.22a43.15,43.15,0,0,1,.17,5.33,7.79,7.79,0,0,0,.84,3.4c-.17-5.32-.17-10,1.67-14.42a89.06,89.06,0,0,1,6.22-12.24c4.52-7.41,9.52-14.57,12.08-23.05,1.44-4.78,1.93-9.72,2.78-14.6a3.83,3.83,0,0,0-1.7-3.64c-9.1-7.78-18.74-14.85-28.47-21.81-2.14-1.52-2.06.35-2.29,1.52A144.56,144.56,0,0,1-257,500.66c-1.11,2.78-2.23,5.56-3.42,8.31-2.36,5.43-4.63,10.86-4.3,17-.47,1.31-1.23,1.2-2.11.43-1.65-3.15-1.06-6.35-.13-9.51,2.17-7.46,5.94-14.33,8.13-21.79a23.73,23.73,0,0,0,1-3.51c.23-1.79-.44-2.64-2.36-2.39-6.83.89-13.72,1.21-20.56,2.07-7.21.9-14.48.84-21.71,1.47a7.81,7.81,0,0,1-3.24-1.49c-1.42-1.17-1.06-2.88-1.32-4.41-.48-2.8-1.21-3.36-3.94-2.79a54,54,0,0,0-9.08,2.65,11.08,11.08,0,0,0-6.87,7.56c-.23.8-.67,1.84,0,2.4,2.65,2.19.64,2.7-1.1,3.36-2.71-.43-2.88-.71-3-4.77.07-7.77,1.16-15.48,1.23-23.25,0-1.28,0-3.42,1.61-3.34,1.34.08.9,2.17,1,3.42.32,5.44-.63,10.82-.7,16.48,1.73-2.46,1.59-5.22,1.83-7.82a37.48,37.48,0,0,0-.65-13.33c-1.14-4.24-.23-8.44,1.71-12.52a19.31,19.31,0,0,0,1-13.34c-.76,2.57.49,5.63-1.88,7.83-1.1-.68-1.07-1.66-1.15-2.57a18.77,18.77,0,0,1,0-3.09,22,22,0,0,0-3.17-14.22c-1-1.6-2.09-3.55.1-5.24,4.24-1,4.84-2,3.75-5.92-.66-.93-1.21-1.94-1.83-2.9-.19-.33-.07.11-.14-.24-1.14-5.15-4.8-6.25-9.48-6.63-8.06-.65-16-2.78-24.17-2.31-1.27.08-2.61-.2-4.07,1.07,2.54.21,4.74.08,6.92.12a13.88,13.88,0,0,1,4.95.78c.41.16.93.32.91.89s-.56.68-1,.82a10.15,10.15,0,0,1-3.06.25c-3.17,0-6.34,0-9.5,0-1.1-.09-1.79.27-1.82,1.51s0,2.22,0,3.34c-.26,10.82-.18,21.67-1.54,32.44a26.83,26.83,0,0,1,.36-3.09c.56-3,2.61-4.29,5.49-3.61,1.09.26,2,.77,2,2a2.34,2.34,0,0,1-1.77,2.54c-1.33.43-3.42.11-3.19,2.3s2.34,1.39,3.64,1.59c4,.63,8,.81,12,1.22,2.08.21,2.71-1.19,3.58-2.53,3.21-5,7.87-6.32,13.06-3.83a9.62,9.62,0,0,1,4.47,4.84c.45.92.6,2.35,1.44,2.65,2.49.87,2,3,2.42,4.76.09.36.21.07,0,.25-1.73,1.58-2.19,4-3.79,5.64-1.06,1.06-2.62.82-4,.66-1.09-.13-2.06-.56-2.18-1.8-.14-1.41,1-1.62,2-1.81.18,0,.38,0,.55-.08.57-.18,1.53,0,1.4-.95-.11-.8-1-.79-1.6-.8-1.78-.05-3.51-.48-5.28-.59a7.65,7.65,0,0,1-1.67-.07c-4.83-1.52-7.6.26-9.18,5-.62,1.87-1,3.3.15,4.93,2.23,3.15,3.17,7,5.37,10.15a3.49,3.49,0,0,1,.41,1.92c.08-.48,0-1,.15-1.42.19-.8.23-1.95,1.33-1.81s1.16,1.37,1,2.26a21,21,0,0,0,1.39,12.6,27.47,27.47,0,0,1,1.6,6.53c0,.93-.15,1.8-1.2,2.15-1,.15-1.53-.44-2-1.22-1-1.82-2.86-3.64-2.83-5.47a21.81,21.81,0,0,0-.88-5.49c-.24-1.07-.13-2.2-1.42-2.81-.86-.42-.37-1.33-.25-2a3.92,3.92,0,0,0-1.21-3.85c-2.48-1.87-5-3.54-2.82-7.13-1.69-.65-2.07,2.26-3.2.9-1-1.18.46-2.6.7-4a25.25,25.25,0,0,1-4.14,7.1,3.58,3.58,0,0,0-.38,4.56c2.16,4,4.19,8.16,5.09,12.72,0,1.11.25,2.3-.83,3.12-1.36-.13-1.43-1.34-1.73-2.24a70.4,70.4,0,0,0-7.49-16c-1.3-2-.91-3.39.95-4.73a19,19,0,0,0,4.13-4.16c.63-.89,1.57-2,.8-3s-2.1-.29-3.05.14c-4.63,2.12-8.49,5.4-12.39,8.58-2.46,2-4.88,4.06-7.32,6.1-.69.57-1.58,1.44-2.37.39-.64-.85.24-1.55.87-2.09,5.54-4.71,10.82-9.76,16.95-13.74a14.27,14.27,0,0,1,7.47-2.52c-2-1.15-3.75-.38-5.44.4-5.66,2.62-10.33,6.65-15,10.67-8.84,7.6-16.79,16.24-26.36,23-4,2.79-7.91,5.68-13.12,6.15.63.92,1.62.61,2.28,1a1,1,0,0,1,.58,1c-1.39,1.16-3.07,2.16-1.44,4.4.66.92,1.28,1.6,2.45,1.48,2-.2,3.82.71,5.7,1.14,1.49.34,3,.71,3,3.27,0,1.21,1.26,2.42-.45,3.72,6.19-1.19,12.06-1.08,17.6,2.05a19.84,19.84,0,0,1,4.42,3.41c.38.39.81.93,1.41.7s.61-.93.48-1.47a3.56,3.56,0,0,1,1.52-3.89,3.2,3.2,0,0,0,.92-3.84,39.2,39.2,0,0,0-3.27-5.87,2,2,0,0,0-2.23-.82,19.9,19.9,0,0,1-2.78.33c-7.85.22-12.18-6.75-8.78-13.9,1.22-2.58,4.29-4.07,4.16-7.38,0,0,3.77-1.61,3.78-1.6,1.65,1.29,3,0,4.38-.57,3-1.24,4.89-.29,5.7,2.79.29,1.12.17,2.06-1,2.62a1.67,1.67,0,0,1-2.4-.74c-.75-1.42-1.68-2-3.14-1s-.56,2.14-.07,3.17c1.86,3.88,3.77,7.73,5.24,11.78.33,1.41-.42,2.71-.41,4.09,1,1.81,1.3,4,3,5.32.64-.17,1-.74,1.44-1.08s.85-.92,1.31-1.35c1.77-.91,2.81,1,4.31,1.13a8.91,8.91,0,0,1,4.16,3.54c2.48,3.36,2.45,3.24,6,1.31,3.07-1.67,6-3.68,9.55-4.34.93.11,1.71.37,1.66,1.54-.42,1.19-1.52,1.57-2.51,2.06a64.44,64.44,0,0,0-9.45,5.38c-2.48,1.79-3.92,1.53-6.08-.75-1.48-1.56-2.27-3.66-4-5-1.9-1.5-4-1.4-4.88.79-2,5.14-4.76,10.21-3.46,16.1,0,1.15,1,2,1,3.11-.92,4-.79,8.38-3.59,11.89-1,1.27.46,1.53,1.21,1.85,3.68,1.61,7.5,2.83,11.29,4.13,10.39,3.56,20.77,7.2,31.31,10.33,1.13.33,2.73.22,2.88,2h-5c-1.84-.56-3.81-.46-5.61-1.18-1.3-.52-2.08.27-2.8,1.18h-2.24c-.76-.6-.33-1.59-.76-2.35-.76.64-.67,1.79-1.48,2.35h-1.12c.21-4.43-3.3-4.79-6.25-5.71s-6.15-1.94-9.28-2.71c-.78-.22-1.37-.85-2.18-1-4.13-1.48-8.45-2.4-12.5-4.1-1.24-.52-1.8-.22-2.2,1.14-.76,2.61-1.34,2.68-3.7.63-1.23,3.9-1.34,8-2.56,11.76h-5c-4.42-2.05-5.89-4.59-5.32-9.58a1.85,1.85,0,0,0-1.35-2.34,22.77,22.77,0,0,1-8.27-5.6c-2.16-2.19-5.26-2.74-8-3.86a52,52,0,0,1-7.06-3.38c-.77-.47-1.83-1.16-1.23-2.17.51-.85,1.56-.25,2.29.11a57.2,57.2,0,0,0,10.88,4.35,100.91,100.91,0,0,1-19.6-12.21c-1,5.93-1.75,11.37-2.51,16.79-.68,4.91-1.35,9.82-1.92,14.75a5,5,0,0,1-1.06,3.14h-1.68c-.8-1-.57-2.09-.45-3.2.39-3.89,1.13-7.74,1.46-11.64.07-.79.58-1.82-.29-2.32-1-.6-2.17-.08-3.19.36s-1.05,1.45-.83,2.39c.7,3,1.27,6,1.89,9,.37,1.76,1.33,3.53.29,5.39h-1.68c-1.6-1.88-1.75-4.31-2.39-6.53-1-3.59-1.91-7.24-2.85-10.87-.54-2.07-1.54-2.72-3.62-2.26-6.11,1.37-12.06,3.34-18.23,4.46a27.64,27.64,0,0,1-4.69.77c-1-.28-2.65.39-2.33-1.7.86-1.12.39-1.85-.89-2.48-.56.71,0,2-1,2.53-1.05.22-1.49-.48-1.9-1.25-.66-2.43-.54-5.06-1.83-7.33a3.31,3.31,0,0,0-.29-.47c-.06-.09,0,0,0,.28a.85.85,0,0,1-.87.88c-1.25-.28-1.9.3-2.22,1.47a19.07,19.07,0,0,1-1.28,4c-.58,1.49-.65,3.86-3.26,2-.21-3.56,1.35-6.6,2.7-9.71-2.76,2.47-2.49,6.12-3.39,9.32-.32,1,0,2.82-1.15,2.76-1.43-.06-1-1.81-1.1-2.93a7.93,7.93,0,0,1,0-1.09,24.51,24.51,0,0,1,1.89-7.28c1-2.08.45-3-1.64-3.59-9.6-2.91-19.08-6.24-28.74-8.94-1.25-.35-2.58-.55-3.27-1.87v-1.13a2.31,2.31,0,0,1,3-.6,18.51,18.51,0,0,0,3,.66,6.88,6.88,0,0,0,7.89-.77,3.75,3.75,0,0,1,2-.84,1.55,1.55,0,0,1,1.54,1.12,18.83,18.83,0,0,0,1,2.6c.43.9.8.35,1.19,0,1.58-.9,2.39-2.08,1.88-4-.28-1.11-.37-2.41,1.11-3a1.62,1.62,0,0,1,1.15.24c1.2,3,4,4.37,6.32,6.16,5,3.83,9.19,8.49,14.2,12.28,2.18,1.64,3.53,4.32,5.62,6.22a8.92,8.92,0,0,0,3.5,2.43,24.46,24.46,0,0,0-1-7.12c-.48-1.55,1.68-3.42,3.37-3.37s2.16,1.23,1.37,2.74c-.4.75-1.67,1.41-.62,2.36.84.75,1.74-.09,2.54-.52s1.28-.78,1.92-1.16c4.12-2.45,4.12-2.45,3.28-7.14a8.18,8.18,0,0,1,4-8,8.16,8.16,0,0,1,10.26,1.41c1.08,1.05,1.89,2.22,3.72,2,.92-.11,2.37,3.28,1.78,4.23a4.24,4.24,0,0,0-.33,3.49,4.4,4.4,0,0,1-2.51,5,1.83,1.83,0,0,1-2.52-.35c-.67-.82-.28-1.57.28-2.27.73-.9,2.34-1.87,1.36-3s-2.09.55-3.08,1c-1.59.79-3.21,1.53-4.72,2.47-.88.54-1.79,1.09-2,2.2-.29,1.34-.06,2.3,1.66,1.94.91-.19,1.83-.4,2.72-.67a4,4,0,0,1,4.76,1.3c.75.91,1.74,2.19,3,1.42,1.84-1.12,4.68-.46,5.28-4,.78-4.64.85-8.26-2.89-12.09-5.86-6-10-13.52-15.48-19.92-5.19-6-11.8-10-18.64-13.67-1.2-.65-2.34-.21-3.48.32-1.6.75-3.07,1.82-4.91,2-1.38-.13-2.95-.16-1.28-2.14,1.86-1.38,3.56-2.72,4.14-5.29.41-1.81,2.57-1.93,4.2-2.24,4.33-.83,4.32-.81,4.2-5.2a31.25,31.25,0,0,0-.46-3.61,31.1,31.1,0,0,1-.08-3.14c-3.91,6.72-7.57,13.74-12.5,20-.71.79-1.23,2.14-2.63.88-.07-2.66,1.41-4.89,2.73-6.82,2.07-3,4-6,4.95-9.61,0-.15.28-.23.44-.32,1.2-.25,1.46-1.14,1.47-2.2.43-1.56.95-3.06,2.64-3.74-.14-.13-.28-.06-.49,0-1.37.47-3.35,1.69-4,.2s1.71-1.68,2.82-2.29a15.06,15.06,0,0,0,4.45-3.25c-9.14,5.69-18.67,5.12-28.3,3.88-5-.64-10-1.13-15-1.42-.94,0-2-.28-3,.72,1.94,1,3.81.46,5.6.57s3.73-.1,5.58.14c.87.11,1.83.45,1.75,1.45s-1.08.92-1.81,1c-2.88.17-5.77,0-8.66.09-1.28,0-2.72.17-2.63,1.79.14,2.29-.24,5,1.6,6.62,1.19,1.05-1.25,1.22,0,1.85,1.53.78-.92,1.25-.22,2.13s.7,1-1.49,1.64c0,.43.31.17.46.23a4.58,4.58,0,0,0,.55.07c.61.14,1.48.11,1.55.89s-.82,1.11-1.5,1.39c-1.1.45-2.43-.13-3.49.7.19,1.13,1.13.77,1.76.94s1.29.2,1.64.94c-.71,1.36-2.08.82-3.16,1.1,1,.47,2.47-.22,3.26,1.42a14.49,14.49,0,0,1-6.73,1,3.18,3.18,0,0,1-.67-.46v-3.38c2.25-10.58,3.51-21.22,1.9-32-.29-2,0-4.21-1.9-5.65v-1.68a2.53,2.53,0,0,0,0-3.38v-4.49c3.12,1,6.1,5.63,5.43,8.71a19,19,0,0,0,.09,6.11,2.68,2.68,0,0,0,2.53,2.51c5,1,5.74.54,5.72-4.59-.05-11.13-.1-22.26,1.08-33.36.07-.65,0-1.31.05-2,0-5.06-1-6.06-6-5.84-1.4.06-1.53.93-.73,1.55,1.7,1.3,2.14,3.6,1.32,4.61-1.49,1.83-2.1,4.46-4.48,5.56a4.35,4.35,0,0,1-3.53.22,1.8,1.8,0,0,1-1.19-1.74c0-.93.55-1.31,1.35-1.51.45-.11.92-.12,1.38-.23s1.25-.13,1.16-.9-.78-.71-1.31-.79c-1-.14-2.08-.06-2.89-.84V424c.83-.84,1.9-.45,2.8-.56-.89-.12-2,.28-2.8-.56v-1.13a2.44,2.44,0,0,1,3.16-.15c-1.11-.77-2.53-1.28-3.16-2.66v-3.37c1-1,2.25-.63,3.44-.45a101.93,101.93,0,0,0,18.05,1.46c2.35-.05,3.05-.89,3-3.15a41.9,41.9,0,0,0-1.71-10.75,9.77,9.77,0,0,0-5.26-6.23c-1.75-.9-3.63-2.14-4.93,1.11a3.41,3.41,0,0,0-4.77-1.83c-1,.4-2.31.42-3.07,1.37-.52.66-1,.55-1.23-.09-.37-1-.53-1.17-1.29-.21-.51.65-.92-.18-1.16-.63-.45-.81-.38-1.85-1.11-2.53V390.8c2.84,0,5.66.47,8.52.42a13.55,13.55,0,0,0,12.48-18.6,8.25,8.25,0,0,1-.33-1.07,6.82,6.82,0,0,0-.91-2.28c-.44-5.95-11.37-9.81-16.58-8.42-1,.28-2.09,1-3.18.15v-2.25c1.18-1.24,2.94-1.05,4.54-1.82-1.33-2-3.58-3.26-4.54-5.49v-2.81c.79-.77,1.56-1.58,2.37-2.33.22-.07.16-.1-.08.05-.73.46-1.12,1.57-2.29,1.16v-1.13c.25-.28.34-.66.57-.93,1.08-1.26-.59-.35-.57-.75v-1.13c.42-.56.83-1.12,0-1.69v-4.49c1.47-.23,1.85,1,2.42,1.9,3.36,5.11,7.69,9.37,12,13.58.63.61,1.36,1.73,2.3,1.07s.26-1.79-.1-2.58c-3.55-7.73-7.79-14.91-15.79-18.92a3.64,3.64,0,0,1-.88-.68v-2.25c1.44-.86,2.48.22,3.56.82,4.14,2.33,7.31,5.77,10.48,9.49-.29-3.68-1.07-7.13-1.58-10.62-.24-1.7-1.15-2.34-2.85-2.35a45,45,0,0,0-6.67.64c-1,.14-2,.6-2.94-.22v-1.69c2.67-2.31,6-2.29,9.2-2.46,4.78-.25,4.77-.14,4.57-5a58.08,58.08,0,0,1,1.92-17.71c.36-1.33.57-2.78,1.83-3.67a1.35,1.35,0,0,1,1.54.66c.87,1.22,2.08.9,3.27.72,2.53-.38,5.08-.33,7.39-.53a1.87,1.87,0,0,1-1-1.28,1.38,1.38,0,0,1,1.12-1.58c2.58,0,4.5,1.65,6.62,2.74a86.41,86.41,0,0,1,8,5.14c.84.56,1.71,1.09,2.17-.35,3.32-10.47,11.66-16.43,20-22.28,5.62-3.93,11.05-8,15.15-13.6a62.67,62.67,0,0,0,9.74-21.3c.65-2.43.5-2.51-2.35-2.41-1,0-2-.31-2.92.24-3.19,1.42-6.57,0-9.82.65-1.24.26-2.59.06-3.85.41a6,6,0,0,1-.74.12c-.71.06-1.43.17-2.15.2a6.71,6.71,0,0,0-2,0,14.24,14.24,0,0,0-2,0,3.67,3.67,0,0,1-.66.05,2,2,0,0,0-1.82.59c-.77.64-1.54.16-2.42,0a9,9,0,0,1,2.66,9.55c-.67,2.37-.52,3.85,2.28,4.84,4,1.41,5.22,4.23,4.84,9.05-.13,1.59-.38,3,.84,4.48.93,1.09-.71,3.82-2.06,3.45-2.14-.59-3.29.53-4.63,1.76a4.57,4.57,0,0,1-7.18-1.64,1.52,1.52,0,0,1,.2-1.81,2.16,2.16,0,0,1,2.32-.55c.83.21,1.41.9,2.2,1.18a1.35,1.35,0,0,0,1.73-.51,1.15,1.15,0,0,0-.42-1.7c-2.89-2.05-5.59-4.37-8.64-6.19a3,3,0,0,0-2.92.14c-4.16,1.73-7.21,1-10.22-2.46a3.4,3.4,0,0,0-3.1-1.54c-1.42.19-1.5,1.48-1.81,2.53a28.2,28.2,0,0,1-1.57,4.5c-.47,1-.77,2.17-2.18,2.29-.9-.58-.88-1.51-.93-2.42.78-4,2.19-7.9,2.51-12a30.58,30.58,0,0,0-1.93-13.16c-.65-1.76-1.72-2.4-3.4-1.21-7.18,5.08-15.31,4.51-23.4,3.86-2.07-.17-4.34-.06-6.1-1.59V233.37c1.07-.05,1.1.85,1.27,1.52.29,1.09.48,2.2.75,3.29,1.28,5.19,1.73,5.55,7,5.64a78.56,78.56,0,0,0,15.24-1.21c-5.7,1-11.46.44-17.19.5a3.57,3.57,0,0,1-3.75-3.13,52.88,52.88,0,0,1-1.22-14.79c.05-.71.05-1.79.93-1.8,1.06,0,1,1.16,1.08,1.94.45,3.9.59,7.84,1.34,11.71.59,3,1,3.26,4.1,3.42,5.89.3,11.73-.72,17.61-.62a4.63,4.63,0,0,0,2.89-.94c1.91-1.43,3.58-1.09,4.66.95s2.73,2.34,4.87,2.34a438.63,438.63,0,0,0,49.41-2.92c4.18-.47,6.47-3.47,5.75-7.69a9.64,9.64,0,0,1-.08-3.63c.12-.53.22-1.2.89-1.24s.88.62,1.1,1.12a27.81,27.81,0,0,1,.88,3.82c.24.82.15,2.19,1.45,2,1.12-.19.72-1.36.66-2.15-.46-5.68-1.05-11.36-1.48-17-.38-5.13.25-10.31-.88-15.4-.49-2.19-.76-4.43-1.35-6.6-1-3.48-3.35-5.1-6.85-4.86-9,.64-18.06,1.12-27.1,1-3.13,0-5.94.37-8,3.12a6.56,6.56,0,0,1-3.13,1.94c2.76,1.45,3.57,3,3,5.66-.19,1-.54,1.83-1.71,1.88a1.7,1.7,0,0,1-1.8-1.44c-.1-.36-.16-.74-.29-1.09s-.24-1-.87-.88-.68.64-.7,1.08a58.52,58.52,0,0,0,.07,9,15.5,15.5,0,0,1,.3,2.23c-.09,2.28,1,3.39,3.22,3.8a12.82,12.82,0,0,1,6.83,4.17c5.21,5.47,4.12,12.53-2.48,16.21a17.75,17.75,0,0,1-4.73,1.71,3.75,3.75,0,0,0-3,2.17c-.44,1-3.82,1.35-4.21.42-1-2.29-2.81-2.08-4.68-2.18-3.23-.19-4.63-2-4.11-5.29.15-1,.38-1.88,1.53-2.07a2.09,2.09,0,0,1,2.42,1.45c.59,1.42.73,3.55,2.95,2.94s1.44-2.84,1.32-4.33a68.1,68.1,0,0,1-.44-10.09c.17-2.49-.75-3.91-3-5-5.23-2.5-7-7.12-5.15-12.35a10.76,10.76,0,0,1,4.62-5.25c-9,1.06-18.09,2.86-27.18,4.62a4.11,4.11,0,0,0-2.7,1.82,19.45,19.45,0,0,1-2.47,3.4c-2.56,2.37-4.54,4.94-4.14,8.72a1.41,1.41,0,0,1-1,1.56c-1.61-1.29-.27-4-2.42-5.07v-3.37c.94-.56.48-1.12,0-1.69v-.56c.42-.45.92-.36,1.49-.16-.49-.57-1-1-1.49-1.52v-.57a1.65,1.65,0,0,1,2.26,0c1.16.81,1.78.23,2.3-.68-1.09-2.36-3.41,1.08-4.56-1v-2.25c2.1-3.74,4.76-7.17,6.45-11.15a40.3,40.3,0,0,0,1.65-4.18c.4-1.32,1.05-2.78-.28-3.92s-2.91-1-4.5-.45c-1.11.37-2,1.52-3.32,1.14v-2.25c2.65-2.06.41-4.12,0-6.18v-3.37c1.48-.2,1.76,1.1,2.36,2,.91,1.3,1.57,2.76,2.45,4.19.39-.74-.61-1.86.5-2.17.8-.22,1.35.58,1.66,1.25.86,1.91,2.52,2.91,4.16,4,5.65,3.75,6.51,6.3,4.44,12.78-1.82,5.7-1.39,6.18,4.45,5.11,1.74-.32,3.48-.65,5.24-.87a7.35,7.35,0,0,0,2.9-.45c5.22-1.29,10.57-2,15.82-3.11,1-.22,2-.39,3-.61,5.59-1.22,6-1.71,6-7.4.33-1-.33-2.81,1.86-2.15a3.3,3.3,0,0,1,1.14,2.18c.31,2,1.4,2.15,3.2,1.25a29.26,29.26,0,0,1-6.21-11.06,5,5,0,0,1,0-3.78c1.67-1,2.76-.51,3.2,1.32.16.66.23,1.24,1,1.4a1.08,1.08,0,0,1,.11,1.18c.7-.54.42-1.15.15-1.75-.51-1.76-2.61-3.41-.37-5.37a2.44,2.44,0,0,1,1.23-.07,2.82,2.82,0,0,1,1.46.87c1.5,2.47,2.13,5.38,3.9,7.73,3.84,5.1,8.55,8.6,15.23,8.58,7.18,0,10.65-5,8.24-11.77a7.68,7.68,0,0,1-.43-1.63c.22-1.32-1.15-2.82.4-4,3.41,2.35,5.35,9.31,3.7,13.33a13.79,13.79,0,0,0-.7,1.52c-.22.79-1.68,1.58-.54,2.33,1,.63,2.18,0,3-.84,1.77-1.8,2.63-4.29,4.52-6,.67-.4,1.38-1.17,2.15-.42s.39,1.68.05,2.54-.9,1.85-1.25,2.78c-.26.69-1.62,1.44-.44,2.34s1.52-.52,2-1.06a4.67,4.67,0,0,1,2.53-1.62c.71-.08,1.36,0,1.69.75-.21,2.42-2.75,3.46-3.38,5.85,1.2.74,2.33.09,3.35-.34,6.81-2.84,12-7.74,16.48-13.45,1-1.3,2.25-2.89,1.22-4.86-1-1.64-.59-2.78,1.2-3.44,1.41.48,1.91,1.79,2.62,2.9.92.88,2.42.23,3.29,1.25a7.14,7.14,0,0,1,1,3.9c-.1,1,0,2.17-1.33,2.6-1.81,0-1.57-1.47-1.89-2.55-.19-.63-.36-1.32-1.13-1.43s-1.11.56-1.39,1.13a20.64,20.64,0,0,1-5.61,7.51c-.35.05.15.48.07.11,0,0,.08,0,.26-.09a5.1,5.1,0,0,1,1.1-.14c.83,0,1.66,0,2.5,0,.62,0,1.43-.23,1.74.48.36.86-.34,1.33-1,1.73a32,32,0,0,0-14.84,6,12,12,0,0,1-4.88,2.06c-.64.13-1.29.25-1.95.32a5,5,0,0,1-.77,0c-.84-.16-1.43,0-1.19,1.06,1.95,11.43,4,22.83,5.09,34.39.06.65.12,1.31.22,2,.57,3.57.57,3.6,4.26,3.23,1.15-.12,2.41.32,3.48-.46,0-1.06-.82-1.46-1.49-1.94-.38-.27-1.07-.57-1-.91.23-.89.75-1.72-.21-2.48,1.62-1.47,1.43-3.79,2.57-5.49a3.21,3.21,0,0,1,2.28-1.49c1.27-.17,2.83-.56,3.35,1.07.47,1.47-1,1.77-2,2.26-.48.24-1.08.34-1.25,1,.28.89,1,.63,1.62.59,3.35-.25,6.66-.78,10-1.22a2.58,2.58,0,0,0,2.44-2.3c.5-3,1.69-5.5,4.58-7,1.26-.64,1-1.87.74-3a18.17,18.17,0,0,1-.91-5,93.6,93.6,0,0,0-2.07-9.68,43.51,43.51,0,0,1-1.05-4.34c-1.12-5-1.12-5-6.24-4.2a49.21,49.21,0,0,1-6.6.93c-1.23,0-3.18.41-3.31-1.1s1.84-1.43,3.07-1.63c3.57-.58,7.16-1.05,10.7-1.75.81-.22,1-.89,1.28-1.59.29-.87.82-1.42,1.82-.91,1,1.14,1.06,2.58,1.32,3.94,2.78,14.44,5.83,28.82,9.73,43,.79,2.9,1.76,5.72,2.83,8.52.89,2.33,2.43,3.08,4.82,2.7,4.34-.67,8.6-1.72,12.93-2.42,9.31-1.5,18.59-3.13,27.95-4.27,3.6-.44,3.84-.78,3.16-4.23-3.54-17.91-7.7-35.69-11.58-53.53a17.74,17.74,0,0,0-7.07-11c-4.81-3.55-9.41-7.37-14.81-10.06-2.76-1.37-3.26-3.08-2.08-6a36.48,36.48,0,0,0,2.17-5.17c.68-2.9-.37-4.3-3.32-4.41a10,10,0,0,0-2.5.25c-8.39,1.86-16.75,3.81-25,6.3-1.32.4-2.75.65-3.67,1.87-.91,2-.29,4.07-.44,6.1-.09,1.18.2,2.47-1,3.32-1.18-.2-1.32-1.2-1.53-2.08-.27-1.09-.42-2.21-.6-3.32-.93-5.76.2-7.58,5.76-9.25a3.63,3.63,0,0,0,1.23-.43c-1.22-1.32-1.1-2.42.7-3.08.5-.18,1.22-.32,1.13-1s-.93-.86-1.55-.88c-3.45-.12-6.9-.08-10.35,0-1.46,0-2.14.88-2.55,2.17-1.94,6.14-7.62,9.46-14.18,6.09-1.19-.61-1.68-.43-1.76,1-.24,4.67-1.31,9.27-1.13,14a8.87,8.87,0,0,1-1.16,5.13c-.25.27.09,0-.15.24-.66.78-1.41,1.91-2.47,1.07s.23-1.6.56-2.47c-.95.59-1.89,1.62-3,.49a1.86,1.86,0,0,1,.1-2.76c2-2.21,2.56-5,2.85-7.76a240.74,240.74,0,0,0,1.16-25.76c0-11.13-.31-22.26.23-33.39a2.56,2.56,0,0,0-.19-1.64,1.14,1.14,0,0,0-1.48-.41c-.58.26-.42.87-.13,1.18,2.12,2.24,1.09,4.83,1.08,7.42-.06,8.32-.57,16.65.32,25a5.83,5.83,0,0,1,.05.84c-.06,1.2.07,2.93-1.34,3-1.65.11-1.32-1.72-1.33-2.8-.11-7.58,0-15.16-.09-22.75,0-.77.77-2.21-1.06-2.19a6,6,0,0,0-.91.75c-1.27,1.08-.86,2.58-.94,3.94-.09,1.57-.08,3.16-1.56,4.33-1.4-1.41-.71-3.13-1.12-5.2-2.73,3.38-7.06,4.8-7.57,9.53-.07.68-.39,1.62-1.41.68-2.85,3.39-7.5,4.28-10.37,7.79-2.1,2.56-4.33,2.36-6.75,0-4.39-4.27-8.4-8.81-10.22-14.86-.07-.24,0-.93-.54-.24a4.45,4.45,0,0,0-.39.75c-.6,1.1-.26,2.36-.58,3.51a1.82,1.82,0,0,1-.39.69c-.6.28-1-.18-1.38-.43-1.27,0-1.21,1-1.3,1.76-.64,5.67-1.23,11.34-1.72,17-.28,3.3.07,3.54,3.42,4.06.55.09,1.09.26,1.65.3s1.55.67,2-.26c.31-.64-.26-1.21-.66-1.74-1.61-2.11-1.56-3.39.31-5.38A22.77,22.77,0,0,0-473,127c1.47-2,3.5-2.55,5.39-1.56.78.41,1.49.93,1.3,1.93s-1,1.26-1.88,1.37-2.31-.6-2.41.58c-.12,1.41,1.51,1,2.4,1.14,2.74.6,5.56.52,8.33.94a3.35,3.35,0,0,0,4-2.24c1.42-3.35,3.86-5.57,7.69-5.51a10.24,10.24,0,0,1,9.32,5.2c1.27,2.21,1.64,5,4.43,6.2.83.36.61,1.27-.52,1.43-.26,0-.54-.26-.76.07.83,0,1.26.41,1,1.19s-1,.83-1.39,1.34a4.7,4.7,0,0,0-.62,2.69c-.16,1.72-.48,3.37-2.06,4.4-1.08.71-.91,1.71-.79,2.75.34,3,1.28,5.85,1.72,8.82-.09,1.08-.06,2.25-1.61,2.28-1.16-.41-1.31-1.47-1.58-2.46a66.84,66.84,0,0,1-2.13-10.17c-.21-1.72-1.09-2.57-2.73-2.55-12.64.1-24.63-4.26-37.08-5.41-1.63-.15-3.66-1.08-4.76.34-.95,1.25,1,2.67,1.13,4.08.2,2.27,3.06,2.61,3.12,5a17.25,17.25,0,0,0,1.81,6.46c1.24,2.75,2.4,5.5,5.83,6.14a2.09,2.09,0,0,1,.75,2.35,1.27,1.27,0,0,1-.52.6c-.69.37-1.69-.5-2.21.55.94,4.31,3.17,8.19,4,12.51-.09.77-.26,1.47-1.19,1.61-1.33-.35-1.49-1.58-1.82-2.6-4.38-13.54-10.95-26.17-16.17-39.36-.72-1.84-2-2.33-3.87-2.52a76.07,76.07,0,0,0-27.84,2.67c-1,.26-2,.71-2.94,0v-2.81a6.78,6.78,0,0,1,1.9-2c8-5.78,15.46-12.26,23.07-18.54a85.19,85.19,0,0,1,14.69-9.65,21.4,21.4,0,0,1,8.26-2.62c-.35-.75-1.13-.63-1.58-1a1.34,1.34,0,0,1-.65-1c2.33-2.73,2.34-3.12.17-6.62l-.58-.49a4.86,4.86,0,0,0-4.5-.69c-.61.22-1.32.35-1.69-.43s.24-1,.61-1.41c-.74-.14-1.17.48-1.76.64-1.17.33-2,.22-1.27-1.25.49-1,.14-1-.7-1.5-3.38-1.82-7.11-9.66-5.73-13.16,1.07-2.74,2.42-5.8,5.62-7.08,1.67.07,2.08,1,1.62,2.46-.22.72-.58,1.46.43,1.9a2.59,2.59,0,0,0,2.67,0c.9-.66.48-1.59,0-2.26-1.08-1.53-.11-3.35-.84-4.91-.4-2.19-1.37-4.28-1.23-6.58.2-1,.44-1.94,1.8-1.67,1.12.78,1.21,2,1.49,3.21,1.08,4.55,2,9.14,3.07,13.69.39,1.72,1.27,2.34,3,2,9.94-2.21,20.14-2.59,30.18-4.18a67.41,67.41,0,0,0,15.7-4.93,3,3,0,0,0,2-3.73c-1.09-7.5-2.58-14.94-4.18-22.34-3.4-15.72-5.39-31.73-9.29-47.35a3.35,3.35,0,0,1,0-2.47h4.48c1,1.2.39,2.52.24,3.78A6.27,6.27,0,0,0-437.66.74,69.79,69.79,0,0,0-400.2,14c3.56.21,7.06,0,10.59-.1,1.55,0,2.81-.26,2.57-2.33-.16-1.41.94-2,2-2.37,6.34-2.5,12.61-5.17,19.18-7a15.88,15.88,0,0,0,4.13-1.06,16.47,16.47,0,0,1,6.32-2C-353.52-1-352.48-2-352.14-4s.12-4,1.65-5.5h2.24c.85,1.27.13,2.53-.08,3.76-.51,3-.51,3.07,2.25,2.14,3.86-1.29,7.82-2.28,11.67-3.71-1.22-.77-3.28-.14-3.75-2.19h5.6c9.22,1.73,18.1,4.83,27.24,6.9,2.9.66,5.81,1.28,8.75,1.7,4,.58,5.05-.08,6.33-4,.51-1.59.7-3.31,1.95-4.58h1.68c1.1,2.29-.55,4.06-1.09,6a7.06,7.06,0,0,0-1.06,2.9,28.27,28.27,0,0,0-.34,3,1.68,1.68,0,0,1-.76.88c-1.49.46-1.28,1.2-.47,2.24,1.89,2.43,3.74,4.91,5.75,7.25,4.83,5.62,8.84,11.85,13.23,17.79,1.4,1.88,2.68,2.45,4.59.87,1.14-.94,2.62-1.39,3.7-2.39a1.9,1.9,0,0,0-2.09-1.28c-2.55.18-3-1.64-3.05-3.45a29.45,29.45,0,0,0-.48-3.3c-.35-2.5.67-4.48,2.7-5.32.84-.35,1.65-.48,2.29.33s.23,1.54-.3,2.27-2.45,1.38-1.37,2.53c.88.94,1.95-.54,2.79-1.16,2.25-1.68,4.55-3.27,6.82-4.93,1.39-1,2-2.14,1.29-3.82-1.65-3.87-.8-7.23,2.41-9.82,3.36-2.7,7.13-3.7,11.22-1.62,1.77.89,3.37,1.66,5.55,1.1s2,2.47,2,2.86c-.23,1.88.82,3,1.63,4.33s1.92,2.82,1.15,4.69A1.25,1.25,0,0,0-230,14c2.47,2,4.8,4.19,7.77,5.48.68.3,1.44.74,2.09.14s.29-1.59-.1-2.32c-1.49-2.84-3.69-5.17-5.6-7.7a15.65,15.65,0,0,1-1.35-1.8c-.22-.41-.43-.89-.09-1.31.49-.61,1.08-.23,1.46.11,4.13,3.69,7.95,7.6,9,13.52.16-2.16-.89-3.83-1.88-5.46-3.36-5.55-7.65-10.39-11.72-15.39-1.21-1.49-3-2.15-4.78-2.8a9,9,0,0,1-6-6h4.49a16.75,16.75,0,0,0,12,5.77,29.75,29.75,0,0,0,13.25-2.94c1.26-.55.83-2,1.61-2.83H-207c2.16,1.48,2.65,4,3.77,6.13s2.22,3,4.76,2.93c6.14-.16,10.19,6.6,7.53,12.21-.72,1.51-1.94,2.85-1.62,4.67.28,1.59-1.84.36-1.95,1.95-.13,2-1.61.73-2.54.45a7.57,7.57,0,0,0-2.22-.2,2.59,2.59,0,0,1-1.83-.56c-1-1-2.32-2-1.38-3.55s2.1-.18,3.36.33c-1.27-3.35-3.33-6.05-4.72-9.11-.46-1-1.29-1.14-2.34-.9-4.92,1.1-9.09.11-11.87-4.51a2.28,2.28,0,0,0-2.68-1,15.27,15.27,0,0,1-4.89.14c1.88,2.26,3.22,4.42,4.88,6.36a61.35,61.35,0,0,1,5.68,7.65c3.4,5.55,2.66,10.25-2.31,14.44-2.71,2.29-5.41,4.6-8.19,6.81s-2.85,2.28-1.11,5.42a55.51,55.51,0,0,1,3.25,6.21c.27.67.7,1.6-.06,2.06-1,.6-1.5-.39-2-1-1.77-2.48-3-5.37-5.17-7.57,3,6.59,7.19,12.47,10.44,19.47,1.32-2.59,2.41-4.81,3.51-7A144.48,144.48,0,0,1-196.44,22c4.95-5.75,11.22-9.82,18.1-12.95.73-.33,1.66-.38,2.2-1.4-2.09-.6-3.55.81-5.2,1.38-.74.25-1.64,1.23-2.21.27s.5-1.63,1.27-2.15a13.09,13.09,0,0,1,1.48-.79c3.29-1.6,4.33-3.59,3-7.11-.39-1.08-.45-2.28-1-3.4-.69-1.46,2.32-1.3,2.84-2.78a3.36,3.36,0,0,1,.08-.71c.3-.56.89-.73,1.36-1.06a4.82,4.82,0,0,0,1-.82h5.6c.12,1.33-1,1.39-1.8,1.68s-1.78.51-2.22,1.5c.93.57,2.8-.33,2.75,1.08-.06,1.59-2.14,1.26-3.28,2a21.83,21.83,0,0,1,8-1,3.07,3.07,0,0,0,3.45-2.07c.53-1.16.8-2.52,2.08-3.2h1.68c.08,3.67-1.65,6.75-3.33,9.8-.61,1.11-2,.88-3.08.54a15.8,15.8,0,0,0-5.55-.56c-1.15.06-2.73-.33-3.06,1.23-.29,1.37,1.21,1.7,2.16,2.21a28.77,28.77,0,0,0,6.55,2.41c4.89,1.27,9.8,2.38,14.75,3.37,1.44.29,4,.23,3.66,2.09-.3,1.65-2.59.63-3.95.36-5.22-1-10.48-1.91-15.62-3.29-3.54-.94-7-2.14-10.14-5.14a5.35,5.35,0,0,0,3.24,3.43c5.54,2.89,11.6,4.05,17.65,5.27,9.33,1.89,18.87,2.62,28.14,4.83,6.71,1.6,13.5,3.11,19.09,7.61.3.25.67.32.93-.11a3.33,3.33,0,0,1,.89-1.26,7.64,7.64,0,0,0,2.57-2.9C-97.14,11.17-91.75,2.11-86.8-7.2a5,5,0,0,1,1.93-2.32h1.68c.62.71.29,1.43,0,2.09a184,184,0,0,0-7.2,17c-.27.74-.55,1.83-1.59,1.63-.83-.16-.65-1.14-.68-1.86-.67,1.77-1.94,3.2-2.59,4.94-.28.75-1.86,1.76-.13,2.43,1.28.49,2.93,1.23,3.93-.67a9.94,9.94,0,0,0,.63-1.86A122.59,122.59,0,0,1-81.9-7.52a7,7,0,0,1,1.51-2h9.53c.56.49,1.12.72,1.68,0h2.24c.86.95,2,.88,3.12.85,13.91-.35,27.74.73,41.56,2.13,3,.3,5.86.28,7.43-3h1.68a3.53,3.53,0,0,1-.28,4.61c-3.33,1-4.72,3.87-6.48,6.46a29.54,29.54,0,0,1-7.61,8.07c-1.3.88-1.29,1.6-.25,2.63A28.74,28.74,0,0,1-23,17.69a5.46,5.46,0,0,0,2,2.18c3.48,3.71,7.09,7.3,10.37,11.21,1.31,1.56,3,2.79,4.26,4.38C-4.33,38-2,38.63,1,37.34c1.8.68,4,.5,5.33,2.2a1.85,1.85,0,0,1-.92,1.81c-1.9.5-3.66-1.42-5.6-.34-4.08.82-8.29,1.15-12.12,2.94-1.57.73-3.69,1.34-3.55,3.42s2.22,2.79,4,3.37c1.41.46,2.87.75,4.31,1.14,2.18.48,4.38.11,6.57.24,1.16.07,2.44-.19,3.21,1.06.26,1-.6,1.87-.58,2.92,0,1.39.75.79,1.38.6.66.25.64,1.24,1.45,1.31.51-.23.82-.83,1.47-.81,2-1.34.36-2.72,0-4.09C5.8,51.9,5.64,50.7,7.2,50.24a2.35,2.35,0,0,1,2.17,1.28,2.1,2.1,0,0,1-.17,1.61,4.45,4.45,0,0,0-.32,2.59c.21,1,.52.08.79,0a.91.91,0,0,1,.68-.14,2.09,2.09,0,0,0,2.25.75c1,0,2,.06,2,1.46a2.44,2.44,0,0,1-1.8,1.63c-4,1-7.79,3.07-12.16,2.7-2.48-.21-5,.64-7.51.12-1.29-.27-2.2.84-3.07,1.69-1.94,1.89-3.71,4-6,5.45-.69.45-1.5,1.16-2.23.31s0-1.6.55-2.22c1.72-2,3.67-3.7,5.66-5.79-1.38-.45-2,.3-2.8.9-2.85,2.27-5.37,4.93-8.22,7.19-2.6,2.05-3.29,5.11-4.22,8.07a71.7,71.7,0,0,0-2.65,12.9c-.17,1.36,0,2.22,1.69,2,5.09-.72,7.66,2.09,9.49,6.43,2.63,6.23,4.19,12.8,6.39,19.17.61,1.79,1.46,2.81,3.43,2.33,1.3-.32,1.91-1,1.19-2.44-3.18-6.52-2-11.67,3.69-16.09,1.12-.86,1.19-1.48.31-2.47a42.59,42.59,0,0,1-3-3.68c-1.79-2.51-3.56-3.78-7.14-3.26-5.79.83-10.63-5.45-9.21-11.19.45-1.83,1.25-3.58-.25-5.29a1.28,1.28,0,0,1-.11-1c1.36.09,1.91-2,2.85-1.58,2,1,3.57.06,5.31-.55a3.94,3.94,0,0,1,5.3,3c.19.86.27,1.74-.6,2.27s-1.58.07-2.29-.46c-.94-.7-1.76-2.77-3.06-1.32s.81,2.18,1.6,3a67.18,67.18,0,0,1,4.63,5.63,3.81,3.81,0,0,0,4.61,1.59,13.65,13.65,0,0,1,8.25-.23A10,10,0,0,1,9.75,99.35c-.31,1-1.54,2.21-.38,3.05a9.43,9.43,0,0,0,5.07,2.15c.76,0,1-.58.77-1.41a25.3,25.3,0,0,1-.55-12.36c.8-3.63,3.76-5.92,6.69-8a22.41,22.41,0,0,1,6.12-3.36c2.77.24,2.77.24,2.89,4.36.35,1.4.84.3,1.21,0,1.55-1.12,2.34-3.31,4.9-3,.74.09.9-1.47,1.42-2.21a10.24,10.24,0,0,0,1-2.44c.65-1.52,0-2.7-.93-3.86-.68-.87-1.62-1.6-1.61-2.87.16-1,.87-1.31,1.77-1.33a1.8,1.8,0,0,1,.81.13c2.49,1.46,4.24.84,5.46-1.77.31-.68.83-1.51,1.9-1.19v3.38c-1.37,3-3.16,5.83-4.94,9.06a3.58,3.58,0,0,0,2.8-2.44c.42-1,.7-2.17,2.14-2.13v5.06c-1.8,2.12-4.4,3.11-6.61,4.64a22.88,22.88,0,0,1-4.8,2.86c-5.16,1.9-5.17,6-4.55,10.28,1.39,9.69,3.85,19,8.78,27.62,1.35,2.36,1.08,3.26-1.23,4.93a16.44,16.44,0,0,0-4.83,4.6c-.42.7-1,1.53-.28,2.32s1.4.4,2.11.19a32.55,32.55,0,0,0,8.19-4.2c.94-.61,1.82-1.78,3.22-1v1.13c-3.76,3.79-8.11,6.45-13.84,7,2.35,1.16,4.25.27,6.1-.51s3.46-1.83,5.21-2.71c.78-.39,1.53-1.2,2.53-.45v2.25c-1.94,2.37-4.85,3-7.51,4-1.89.7-2.32,1.46-1.32,3.23,1.42,2.52,2.5,5.22,4,7.68a21,21,0,0,1,1.68,3.22c.43,1,1.78,2.53.58,3.18-1.53.82-2-1.26-2.57-2.25a76.54,76.54,0,0,1-4-7.07c-.89-1.86-2-3.56-3-5.38a2.85,2.85,0,0,0-1.93-1.79,70.12,70.12,0,0,0,4.33,8.82c2.49,4.48,5,8.93,7.82,13.25a22.6,22.6,0,0,1,1.86,4v3.38c-2.87-.91-2.83-4-4.38-5.67a79.31,79.31,0,0,1-.43,11.95c-.23,3,.21,3.17,2.79,1.83.65-.34,1.27-.86,2-.24v2.25a46.09,46.09,0,0,0-10.56,16.59,13.92,13.92,0,0,0-1,5.17c.07,2.55,1.18,3.34,3.59,2.45a16,16,0,0,0,5.27-3.58C44.27,201.56,44.88,200.43,46.25,200.76Z"/><path class="cls-5" d="M1,37.79c-3.74,1.79-4.43,1.74-7.26-1.26-5.11-5.39-10.15-10.86-15.21-16.29-.85-1.15.2-1.41.86-1.77A13.21,13.21,0,0,0-16.4,15a13,13,0,0,1-4.47,3.54,1.73,1.73,0,0,1-2.43-.37l-6.89-7.67c5.37-2.69,8.55-7.36,11.53-12.16,1.09-1.77,2.35-3,4.43-3.23,1.67-1.06,2.3.07,2.84,1.38,2.65,6.45,6.83,8,12.76,4.36C3.62-.53,5.14-.38,7,1.48,9.43,3.91,12.19,6,14.53,8.57c.92,1,1.74,2,.66,3.43s-2.13,1.31-3.81,0c.79,1.32,1.44,2,2.36,1.36,2.93-2.16,5.14-4.6,5-8.77C18.63,1,17.31-1.5,14.36-3.26,12.79-4.2,11-4.66,9.3-3.66c-2.25,1.31-4.19.73-5.8-1C2.1-6.12-.13-7-.26-9.52H33.36c1.79,1.71,1.32,3.54.23,5.33C31.66-1,29.39,2,27.29,5,21.07,14.1,15.23,23.43,8.19,31.9,7.59,32.62,7,33.37,6.37,34,4.79,35.58,3.29,37.27,1,37.79Z"/><path class="cls-5" d="M46.25,65.26a6.79,6.79,0,0,0-2.35,3c-1.06,2.27-2.37,2.46-4.2,1a6,6,0,0,0-1.21-.62c-2.84-.77-5.21-2.45-7.6-4.06-6.2-4.2-13.08-7.18-19.53-10.93-.8-.47-1.7-.8-2.13-1.73l-1.7-1.18c-2.18-.55-5.14-.66-5.65-3.1S3.12,42.72,5.24,41l.81-1.53a18.46,18.46,0,0,1,1.07-3.33c2.94-7.21,8.07-13,12.43-19.3.46-.65,1.17-1.55,2-.91.69.51.11,1.45-.2,2.07-2.46,4.93-5.15,9.75-6.78,12.62,2.49-4.89,7.11-11.19,8.89-18.87a3.45,3.45,0,0,1,.62-1.26C24.61,9.9,25,8.85,26,9.15c.8.25.78,1.23.77,2a45.18,45.18,0,0,0,.65,5.58A8.76,8.76,0,0,0,32,24a6.22,6.22,0,0,1,2,1.57,5.65,5.65,0,0,0,2.42,2.78c.72.51,1.93.86,1.4,2.22-2,.4-3.1-1.34-4.41-1.6a30.19,30.19,0,0,0,3.81,2c.19.1.45.56.69.15.06-.12-.14-.48,0-.73a8.43,8.43,0,0,1,2.83-1.48c2.12.32,4.18.75,5.53,2.68v2.81a8,8,0,0,0,0,6.18V51.21c-1,1.77-1.5,3.85-2.89,5.44C42.65,58,41.71,59,40,58.15c-2-1-1.07-2.67-.34-4.52a2.27,2.27,0,0,0-1.29,2c-.08,2.13,3.5,5.84,5.65,5.79a2.65,2.65,0,0,1,2.19,1Z"/><path class="cls-5" d="M46.25,130.48c-2.31.57-3.87,2.44-5.92,3.47A28.49,28.49,0,0,1,35,136.41c-1.14.31-2.48.91-3.33-.32s0-2.35.66-3.35a13.46,13.46,0,0,1,5-4.75c2-1.06,2.28-2.07,1.09-4.12-5.83-10.06-8.47-21.06-9.24-32.59-.14-2.09.41-3.45,2.39-4.47,5-2.59,9.52-6.13,14.62-8.62Z"/><path class="cls-10" d="M33.88,26c-6.62-2.79-7.85-8.39-7.64-14.74,0-.55,0-1.11-.06-1.66,0-.06-.11-.11-.6-.56A116.67,116.67,0,0,1,12.5,35.18l-.79-.44,10-18.51C16.37,22.6,11,28.92,7.58,36.58c-1.68-.3-2.19-1.34-1.8-2.92,8.34-9.51,14.91-20.3,22-30.68C29.25.91,30.55-1.29,32.17-3.2s2.31-3.92,1.19-6.32h1.69a20.28,20.28,0,0,1,3.6,6.86C40.8-4.38,41-7.73,43.45-9.52c2.37-.5,3.25.43,2.83,2.82a16.45,16.45,0,0,0,0,2.81c-1.91-.34-3.09.37-4.24,2.06-1.8,2.63-4,5-3.6,8.48A2.36,2.36,0,0,1,38,8c-.26.46-.42,1.15-1.15,1-.5-.12-.63-.66-.71-1.11a12.44,12.44,0,0,1,.1-4.47A6.3,6.3,0,0,0,36.05-.5c0-.32-.38.23-.06,0,.08,0,.12,0,.14.22.31,2.44-.57,4.81-.39,7.26a3.73,3.73,0,0,0,1.76,3.2c2.11,1.42,4.42,2.44,6.54,3.8a10.74,10.74,0,0,1,2.21,1.77v1.68c-1.3.86-2.31-.13-3.33-.63-4.8-2.3-9.11-5.39-13.78-8.64-.08,4.06-.62,7.82.93,11.34-.08-1.65-.89-3.37-.46-5.17.16-.64.48-1.33,1.23-1.34s.79.68,1,1.2a20,20,0,0,1,.69,4.41,7.38,7.38,0,0,0,8.12,6.59,5.47,5.47,0,0,1,5.61,3.49v2.81l-5.51-2.39A13.44,13.44,0,0,1,33.88,26Z"/><path class="cls-11" d="M-.26-9.52c1,1.08,2.07,2.16,3.11,3.23,1.9,2,3.36,3.51,6.81,1.85,4.91-2.37,10.78,4,9.73,10.11-.2,1.14-1.05,2.28,0,3.42.29.3.2.91-.21.83-3.9-.8.19,1.4-1,1.83-1.37-.64-2.55,0-3.44,1.51s-2.07,1.81-3.42.53c-.74-.71-1.74-1.57-.8-2.59s1.44.32,1.91.82c.9,1,1.55.69,2.27-.14s1-1.51,0-2.37Q10,5.22,5.25.84A1.61,1.61,0,0,0,2.82.8,14.64,14.64,0,0,1-.29,2.66C-5.53,4.92-10.59,2.46-12-3.11c-.33-1.28-.49-2.38-2.19-1.8,1.46-1.27,1-3,1.08-4.61h3.93A3,3,0,0,1-7.94-7.47c1.19,3.82,4.48,6,9,5.81C-.4-3.57-2.13-4.95-3.58-6.58c-.76-.85-2-1.45-1.72-2.94h1.68A14.18,14.18,0,0,1-.24-6.67,23.27,23.27,0,0,0,2.45-4.13c-1.12-1.72-4-2.53-4.39-5.39Z"/><path class="cls-5" d="M46.25,28.72c-.24-.49-.47-1-.73-1.51-.61.46-.05,1.33-.75,1.66-1.38-.54-.52-2.07-1.32-3-1,.39.2,2-.93,2s-1-1.36-1.1-2.1c-1-.12-.51,1.62-1.41,1-2.71-2-7.25-1.76-7.88-6.36A68.14,68.14,0,0,0,30.83,13c-1.13,2.86.09,5.69,0,8.58-3.71-4.26-2.42-9.37-2.61-14.86,3.19,2.18,5.9,4.09,8.68,5.89,3,1.91,5.85,4,9.32,4.89v3.38c-1.57.44-2.57-.75-3.76-1.36C40.26,18.35,38.14,17,36,15.76,39.17,18.2,43,19.53,46.25,22Z"/><path class="cls-5" d="M44,14.71C32.3,8.17,34.71,11.23,35.84-2,38.63,1.5,36,5.33,36.91,9c.28-.39.58-.61.56-.81-.36-4.52,2-7.8,4.49-11.26,1.54-2.12,2.51-2.36,4.29-.8V10.16c-.66.76-.45,1.78-.79,2.63S45.4,14.79,44,14.71Z"/><path class="cls-12" d="M46.25,62.45a2.86,2.86,0,0,0-4.19,1.28c-.29-2.14-.29-2.14-2.23-1.28,1-1.85.39-3-1-4.1a3,3,0,0,1-1-3.73c.49-1.07,1.08-2.73,2.41-2.16,1.52.65.11,1.93-.33,2.73-.67,1.21-.71,2,.59,2.71,1.91,1,1.6-1.16,2.45-1.64a4.17,4.17,0,0,0,3.36.57Z"/><path class="cls-5" d="M46.25,73.13c-2,1.4-1.4,4.84-4.38,5.45a13.37,13.37,0,0,0-2,.89c2.14-4.11,3.56-7.88,6.39-10.83Z"/><path class="cls-13" d="M46.25,22c-4.52-1.84-8.92-3.88-12.54-7.22l.36-.63,12.18,6.73Z"/><path class="cls-14" d="M46.25,56.83c-1.37.16-1.48,2.1-2.89,2.25-.84-.93,1.4-2.19-.47-2.82,1.38-1.51,1.34-4,3.36-5Z"/><path class="cls-15" d="M44,14.71c1.29-1.25.31-3.64,2.27-4.55v5.63A2.61,2.61,0,0,1,44,14.71Z"/><path class="cls-16" d="M46.25,40.52c-1.86-2.06-1.53-4.12,0-6.18Z"/><path class="cls-5" d="M27.7,79.81a38.51,38.51,0,0,0-8.82,5.87c-3.39,3-4.76,6.57-3.74,11.06.4,1.77,1,3.65-1,5.34,2-.37,2.33.73,2.24,1.87s-.89,2-2.1,1.58c-2.11-.73-4.16-1.67-6.22-2.54-1.09-.46-.28-1.09,0-1.55,2.19-3.89,2.36-7.74-.6-11.24S.31,86-3.8,87.32c-3.35,1.07-5.25.45-7.1-2.51-1.52-2.43-3.76-4.39-5.66-6.58-.61-.7-1.83-1.43-.27-2.38,1.07-.65,2.18-1.81,3.29,0a.94.94,0,0,0,.16.23c.79.74.84,2.56,2.61,1.88a1,1,0,0,0,.45-1.43c-.74-1.37-1.35-3-3.19-3.17a3.83,3.83,0,0,0-1.34.36c-2.14.63-4.24,3.52-6.31-.66-.49,2,1.27,2.38,1.13,3.7-1.18-.15-1.42-1.87-2.73-1.76,0,.09.16,7.09.16,7.09a8.56,8.56,0,0,0,10.11,9.77c2-.44,3.2-.18,4.46,1.51,2.06,2.75,4.41,5.28,6.83,8.12-3.54,1.19-5.23,3.7-6.66,6.66-1.8,3.71-1.67,7,1.1,10.11,1,1,.74,1.66-.24,2.45A3.51,3.51,0,0,1-12.79,119C-14.41,114-16,108.86-17.63,103.8a48.67,48.67,0,0,0-2.18-5.47c-2.19-4.68-4.34-5.8-9.36-4.8-1.32.26-1.88.34-1.69-1.3a87.26,87.26,0,0,1,4.18-18.48,9.08,9.08,0,0,1,2.82-4.07c3-2.53,5.92-5.15,8.77-7.83,1.36-1.28,2.63-2.13,4.67-.45L-18.83,69l.74.78c2.42-.6,3.9-2.65,5.42-4.33,2.61-2.87,5.3-4.22,9.4-3.93a34.41,34.41,0,0,0,17.56-3.62c1.13-1.62,2.42-.76,3.71-.25,7.3,2.88,12.67,8,16.72,14.62a27.93,27.93,0,0,0,3,4c.61.68,1.28,1.41.71,2.47-.73,1.31-.34,3.72-3.3,2.8-.67-.21-2,1.7-3,2.59-.76.63-1.28,1.61-2.39,1.78-.76-1,.07-1.49.61-2.07,1.37-1.38-.06-3.33,1.6-5.27A22,22,0,0,1,27.7,79.81Z"/><path class="cls-5" d="M29.92,128.33c-1.43.68-1.41,2.25-2.34,3.11-1.93-2.19-1.93-2.2-.37-5.16.38-1.48-2.13,1.52-1-.6.75-1.42-.61-1.56-.92-1.84-3.5-3.24-3.43-5.14-1.35-8.24-1-.19-1.21,1.05-2.11,1.18-1-.81.79-2.49-.87-3.1,1.44-1-.18-1.94-.21-2.89-.06-1.79-.46-1.78.45-3-.79-.48-1.42,1.06-1.81.39-.8-1.38,1.18-1.64,1.37-2.71-.88-.68-1.27,1.37-2,.5-.6-.68.17-1.29.53-1.94.51-.91-.84-1.29-1.15-1.94-2.93-5.95.1-9.52,4.29-12.86.56-.45,1.07-1,1.81-1.62-2.11.22-2.13.2-4,2.12a24.94,24.94,0,0,1-3.27,3.06c1.18-5.65,6-7.78,10.37-11,.26,5.21.27,10,.78,14.69A79.23,79.23,0,0,0,35.45,122c.56,1.18.91,2.09-.27,3.18A23.09,23.09,0,0,0,29,134.75C27.21,132.08,30,130.47,29.92,128.33Z"/><path class="cls-17" d="M-8.12,52.39a52.37,52.37,0,0,1-5.58-1.58c-1.54-.61-3.14-1.55-3.12-3.53,0-1.81,1.51-2.66,2.91-3.41C-10,41.79-5.68,41.2-1.38,40.56c.36-.06.73-.09,1.1-.13a.77.77,0,0,1,.53-.15c1,.3,2.93-.88,2.91.92,0,1.55-1.91.86-3,1,2.28,1,2.08,1.72-1.77,6.35,2.27.65,4.86.69,7.08,2.17A1.15,1.15,0,0,1,6.1,51.9c-.11.64-.66.83-1.21,1-1.51.48-2.92-.3-4.4-.32C-2.38,52.54-5.26,52.87-8.12,52.39Z"/><path class="cls-18" d="M38.42,78.76c.46-1.52-1.1-1.75-1.69-2.57C34.45,73,32,70,29.75,66.73c-3.31-4.8-8.76-6.39-13.36-9.26-.78-.48-1.36.45-2.1.41-.2-1.43-1.42-.73-2.16-1-.88.06-.33-2.32-1.89-1.1l-.14,0-.14,0c-1-.68-1-1.85-1.26-2.86l.53-1c10,5.14,20,10.27,29.26,16.72-.67.23-1.68-.07-1.74,1.12-2,.13-3-1.5-4.44-2.33,2.67,2.7,4.75,6,7.15,9C39.2,77.23,39.21,78.17,38.42,78.76Z"/><path class="cls-19" d="M-8.12,52.39a107,107,0,0,0,12.28-.08,2.29,2.29,0,0,0,1.36-.56c-2-.9-3.84-2.84-6.46-1.27-.52-.56.62-1.22-.12-1.76-.82.44-1,1.71-2.69,2.09l5-7.52c-.79-.89-2,.21-2.92-.7,1.33-1.2,3.21-.5,4.8-1.38C2.07,40,.74,40.82-.28,40.43c2-1.6,3.68.45,5.52.61-.52,1-1,2-1.56,2.93-2.07,3.67-2.07,3.65,1.73,5.5.73.36,1.41.81,2.12,1.21-1.78.36-.78,1.78-1,2.73-.64,1.27,0,2.78-.71,4-.57.38-.19,1.39-1,1.6-1.23-1.13,0-3.12-1.42-4.17-.48-.21-1.32.2-1.34-.8C1.82,52.43.55,53.09-.33,53-2.92,52.77-5.59,53.52-8.12,52.39Z"/><path class="cls-5" d="M39.46,76.41c-.33,0-.65.35-1-.09C36,73,33.55,69.64,31.25,66l5.5,3.66a24.7,24.7,0,0,0,2.08,2.56A3.06,3.06,0,0,1,39.46,76.41Z"/><path class="cls-20" d="M5.78,33.66a6.54,6.54,0,0,0,1.8,2.92,5.1,5.1,0,0,1-1.53,2.93A16.27,16.27,0,0,1,1,37.79Z"/><path class="cls-21" d="M27.7,79.81c1-.58,2.09-1.12,3.08-1.76a1.15,1.15,0,0,1,1.48.14c.76.54-.19,1-.11,1.32.16.73-2.33,1.85.28,2.19a3.16,3.16,0,0,1-2.11,2.16c-1.45-.27-.85-1.66-.73-2.16C30,79.8,29,79.81,27.7,79.81Z"/><path class="cls-22" d="M5.78,57.45c-.09-1.41-1.61-3.07.71-4,1.61,1.12.83,2.82,1,4.28a.75.75,0,0,1-.81.87C6,58.56,5.88,58,5.78,57.45Z"/><path class="cls-23" d="M2,54.08c.37.75.77,0,1.16,0a1.94,1.94,0,0,1-.06,2.78c-1.16.38.16,2.43-1.18,2.21C.71,58.9,1,57.32,1,56.32.91,55.48.25,54.17,2,54.08Z"/><path class="cls-24" d="M3.08,56.88l.06-2.78c1.25-.46,1.74.14,1.73,1.32s-.08,2.42-.13,3.63C2.69,59.48,3.3,57.86,3.08,56.88Z"/><path class="cls-25" d="M8.7,52.88c1.25.58,1.19,1.75,1.26,2.86-.42.72.41,2.23-.89,2.23-1.49,0-.82-1.53-.93-2.37S7.56,53.58,8.7,52.88Z"/><path class="cls-23" d="M.26,59.62c-.46-.25-.58-.27-.61-.34a6.32,6.32,0,0,1-.33-4.77s.64,0,.67.1A8.78,8.78,0,0,1,.26,59.62Z"/><path class="cls-26" d="M10.24,55.75c.17-.52-.32-1.55.81-1.34,1.41.26,1.22,1.4,1.08,2.44C10.42,58.34,10.67,56.47,10.24,55.75Z"/><path class="cls-27" d="M12.25,20.69C8.37,26.61,4.8,32.81-1.59,36.49,3.47,31.63,7.76,26.08,12.25,20.69Z"/><path class="cls-28" d="M23.75,4,32-7.9l.81.56A133.28,133.28,0,0,1,24.36,4.53Z"/><path class="cls-29" d="M1.55,26.07a4,4,0,0,1-2.88,3.45A7.81,7.81,0,0,1,1.55,26.07Z"/><path class="cls-30" d="M41,66.82C29.39,60.43,18.29,53.16,6.43,47.22,9.2,46.87,38.34,63.4,41,66.82Z"/><path class="cls-31" d="M30.55,42.2c.87,1.41,2.63,1.67,3.71,2.81-1.33,1.79-3.7,1-5.28,2.22-.61.5-1.34-.32-1.92-.76s-.4-1-.1-1.69a3.77,3.77,0,0,0-.62-4.19c1.79-.16,2.72,1.55,4.24,1.64Z"/><path class="cls-32" d="M10.66,44.6c.24-.24.29-.32.37-.36,4.8-2.67,5.75,1.69,7.72,4.24C16.64,48.5,12.9,46.72,10.66,44.6Z"/><path class="cls-33" d="M39.7,38.2l-12-6.91.42-.75,12,6.75Z"/><path class="cls-34" d="M33.88,26a25.61,25.61,0,0,1,6.86,3.17,2.48,2.48,0,0,1-2.92,1.28l0,0c-.63-1.36-2.16-1.52-3.14-2.41C34.09,27.48,33,27.14,33.88,26Z"/><path class="cls-35" d="M26.37,32.24c4.25,2.26,8.13,5.06,12.84,7.33C36.69,39.74,29.65,35.69,26.37,32.24Z"/><path class="cls-36" d="M40.64,34.71c-3.08-.25-9.15-3.76-10.81-6.13Z"/><path class="cls-37" d="M27,36.4c3.28,2.17,7.33,3.1,10.05,6.16C33.24,41.28,30.08,38.92,27,36.4Z"/><path class="cls-37" d="M30.58,42.23c-.86-1.45-2.75-1.75-3.55-3.32a40.13,40.13,0,0,1,9.43,5.81c-2.3-.14-3.71-2.22-5.91-2.52Z"/><path class="cls-38" d="M37.82,30.42c.43,1,1.92.72,2.34,2.72-3.36-1.89-6.49-3.08-9-5.48,2.47.36,4.23,2.36,6.66,2.79Z"/><path class="cls-39" d="M30.41,89.66l12.06-7.31.45.72a101.42,101.42,0,0,1-12,7.39Z"/><path class="cls-5" d="M33.9-1.83C33.71.56,33.52,3,33.32,5.36c-4-1.09-4.07-1.3-1.84-4.62L33.34-2Z"/><path class="cls-5" d="M5.93-.51c2.27.41,9.3,6.72,10.41,9.24A67,67,0,0,1,5.93-.51Z"/><path class="cls-5" d="M16.4,6.09,9-.7A7.33,7.33,0,0,1,16.4,6.09Z"/><path class="cls-15" d="M44,14.09c-1.36-1.44-2.93-1.75-1.92-3.54.66-1.18,1.52,1.09,2-.28C45.31,11.46,43.78,12.35,44,14.09Z"/><path class="cls-40" d="M19.27,70.25,9.05,78.65,8.48,78A44.87,44.87,0,0,1,19.27,70.25Z"/><path class="cls-41" d="M23.88,74.77c-3.23,2.75-6.46,5.49-10.14,8.6C14.59,81,20.19,76.15,23.88,74.77Z"/><path class="cls-42" d="M23,78.32l-8.5,7.38C15,83.54,17.74,81,23,78.32Z"/><path class="cls-43" d="M11.28,78.61a32.62,32.62,0,0,1,8.18-6.22A22.19,22.19,0,0,1,11.28,78.61Z"/><path class="cls-44" d="M6.57,73.42c1.49-2.86,4.32-4.16,6.88-5.76A26.82,26.82,0,0,1,6.57,73.42Z"/><path class="cls-45" d="M20.42,74.7l-7.5,6.59C13.37,79.22,16.57,76.41,20.42,74.7Z"/><path class="cls-46" d="M15.05,70a18.09,18.09,0,0,1-6,4.67,19.93,19.93,0,0,1,5.68-5.06C15,69.55,15.11,69.67,15.05,70Z"/><path class="cls-47" d="M10.16,65.18c-.69,2-2.49,2.66-4.4,4.11C6.52,66.54,8.42,65.94,10.16,65.18Z"/><path class="cls-48" d="M21.54,81a8.72,8.72,0,0,1-4.28,4.6L16.75,85Z"/><path class="cls-49" d="M6.12,71.24a10,10,0,0,1,5.07-4.15A11.8,11.8,0,0,1,6.12,71.24Z"/><path class="cls-46" d="M14.69,69.57c.6-.47,1.08-1.15,2-1.27A2.77,2.77,0,0,1,15.05,70Z"/></g></svg>